<svg xmlns="http://www.w3.org/2000/svg" xmlns:svg="http://www.w3.org/2000/svg" id="svg5370" width="463" height="490" version="1.1" viewBox="0 0 463 490"><metadata id="metadata5376"/><defs id="defs5374"><marker style="overflow:visible" id="marker7231" orient="auto" refX="0" refY="0"><path style="fill:#000;fill-opacity:1;fill-rule:evenodd;stroke:#000;stroke-width:1pt;stroke-opacity:1" id="path7229" d="M 0,0 5,-5 -12.5,0 5,5 Z" transform="matrix(-0.8,0,0,-0.8,-10,0)"/></marker><marker style="overflow:visible" id="marker7013" orient="auto" refX="0" refY="0"><path style="fill:#000;fill-opacity:1;fill-rule:evenodd;stroke:#000;stroke-width:1pt;stroke-opacity:1" id="path7011" d="m -2.5,-1 c 0,2.76 -2.24,5 -5,5 -2.76,0 -5,-2.24 -5,-5 0,-2.76 2.24,-5 5,-5 2.76,0 5,2.24 5,5 z" transform="matrix(0.4,0,0,0.4,2.96,0.4)"/></marker><marker style="overflow:visible" id="DotS" orient="auto" refX="0" refY="0"><path style="fill:#000;fill-opacity:1;fill-rule:evenodd;stroke:#000;stroke-width:1pt;stroke-opacity:1" id="path6500" d="m -2.5,-1 c 0,2.76 -2.24,5 -5,5 -2.76,0 -5,-2.24 -5,-5 0,-2.76 2.24,-5 5,-5 2.76,0 5,2.24 5,5 z" transform="matrix(0.2,0,0,0.2,1.48,0.2)"/></marker><marker style="overflow:visible" id="DotM-6" orient="auto" refX="0" refY="0"><path style="fill:#000;fill-opacity:1;fill-rule:evenodd;stroke:#000;stroke-width:1pt;stroke-opacity:1" id="path6497-2" d="m -2.5,-1 c 0,2.76 -2.24,5 -5,5 -2.76,0 -5,-2.24 -5,-5 0,-2.76 2.24,-5 5,-5 2.76,0 5,2.24 5,5 z" transform="matrix(0.4,0,0,0.4,2.96,0.4)"/></marker><marker style="overflow:visible" id="Arrow1Lend-1" orient="auto" refX="0" refY="0"><path style="fill:#000;fill-opacity:1;fill-rule:evenodd;stroke:#000;stroke-width:1pt;stroke-opacity:1" id="path6436-7" d="M 0,0 5,-5 -12.5,0 5,5 Z" transform="matrix(-0.8,0,0,-0.8,-10,0)"/></marker></defs><title id="title4556">blog-package-upstream-diagram-4</title><path id="path4566" fill="#cbe247" d="m 250.84275,29.929411 h 188.48333 a 7.8833334,8.1975737 0 0 1 7.88333,8.197574 V 226.67119 H 258.72607 a 7.8833334,8.1975737 0 0 1 -7.88332,-8.19758 z" style="stroke-width:.73081"/><path id="path4568" fill="#b0cdda" d="M 17.209412,29.929411 H 205.69274 a 7.8833334,8.1975737 0 0 1 7.88334,8.197574 V 226.67119 H 25.092744 a 7.8833334,8.1975737 0 0 1 -7.883332,-8.19758 z" style="stroke-width:.73081"/><path id="path4570" fill="#cadee6" d="m 213.57608,58.496465 v -20.36948 a 7.8833334,8.1975737 0 0 0 -7.88334,-8.197574 H 17.209412 v 28.567054 z" style="stroke-width:.73081"/><path id="path4572" fill="#e6f26d" d="m 447.20941,58.496465 v -20.36948 a 7.8833334,8.1975737 0 0 0 -7.88333,-8.197574 H 250.84275 v 28.567054 z" style="stroke-width:.73081"/><text id="text4578" x="83.253" y="48.351" font-family="SegoeUI, 'Segoe UI'" font-size="17.54" transform="scale(0.98064606,1.0197359)" style="stroke-width:.73081"><tspan id="tspan4574" letter-spacing="-.034em" style="stroke-width:.539757">F</tspan><tspan id="tspan4576" x="91.218" y="48.351" style="stroke-width:.73081">abrikam</tspan></text><text id="text4580" x="304.09" y="48.351" font-family="SegoeUI, Segoe UI" font-size="24" transform="scale(0.98064606,1.0197359)" style="font-style:normal;font-variant:normal;font-weight:400;font-stretch:normal;font-size:17.5395px;font-family:SegoeUI,'Segoe UI';-inkscape-font-specification:'SegoeUI, Segoe UI, Normal';font-variant-ligatures:normal;font-variant-caps:normal;font-variant-numeric:normal;font-variant-east-asian:normal;stroke-width:.73081"><tspan id="tspan5482" x="304.09" y="48.351" style="stroke-width:.73081">Public registry</tspan></text><path id="path4600" fill="#b4a0ff" d="M 96.870625,318.02108 H 374.54736 a 11.613855,5.9353293 0 0 1 11.61385,5.93534 V 459.92941 H 108.48448 a 11.613855,5.9353293 0 0 1 -11.613855,-5.93532 z" style="stroke-width:.754774"/><path id="path4820" fill="#004880" d="m 217.96259,350.75777 a 6.4012669,6.6564298 0 0 0 -6.41346,6.67358 v 7.21237 a 6.4012669,6.6564298 0 0 0 6.41346,6.67357 h 6.93231 a 6.4019834,6.6571751 0 0 0 6.41418,-6.67357 v -7.21237 a 6.4019834,6.6571751 0 0 0 -6.41418,-6.67358 z m -1.36168,3.50261 a 2.3986834,2.4942982 0 0 1 0,4.98784 v 0 a 2.3986834,2.4942982 0 0 1 0,-4.98784 z m 7.6447,6.06619 a 4.1487833,4.3141596 0 1 1 -4.14665,4.31417 4.1480667,4.3134141 0 0 1 4.14665,-4.31417 z m -13.9915,-12.53558 a 2.2689666,2.3594108 0 1 1 -2.26823,2.35942 2.2682499,2.3586655 0 0 1 2.26823,-2.35942 z" style="stroke-width:.73081"/><rect id="rect4872" width="0" height="0" x="187.776" y="175.995" fill="#447995" style="stroke-width:.73081"/><path id="path5178" fill="#004880" d="m 321.19969,349.45842 a 6.4012669,6.6564298 0 0 0 -6.41346,6.67358 v 7.21237 a 6.4012669,6.6564298 0 0 0 6.41346,6.67357 h 6.93232 a 6.4019834,6.6571751 0 0 0 6.41416,-6.67357 V 356.132 a 6.4019834,6.6571751 0 0 0 -6.41416,-6.67358 z m -1.36167,3.50261 a 2.3986834,2.4942982 0 0 1 0,4.98786 v 0 a 2.3986834,2.4942982 0 0 1 0,-4.98786 z m 7.6447,6.06622 a 4.1487833,4.3141596 0 1 1 -4.14664,4.31415 4.1480667,4.3134141 0 0 1 4.14664,-4.31415 z m -13.9915,-12.5356 a 2.2689666,2.3594108 0 1 1 -2.26825,2.35941 2.2682499,2.3586655 0 0 1 2.26825,-2.35941 z" style="stroke-width:.73081"/><rect id="rect4584-5" width="46.583" height="41.733" x="216.276" y="381.55" fill="#fff" style="stroke-width:.73081"/><polygon id="polygon4586-2" fill="#c2c2c2" points="123 130 54.499 130 60.069 136 123 136" transform="matrix(0.71666667,0,0,0.74523396,174.88957,288.39584)"/><rect id="rect4588-9" width="7.167" height="41.733" x="262.323" y="381.55" fill="#939393" style="stroke-width:.73081"/><rect id="rect4590-5" width="54.467" height="10.433" x="212.156" y="375.588" fill="#fff" style="stroke-width:.73081"/><rect id="rect4592-7" width="7.167" height="10.433" x="265.19" y="375.588" fill="#939393" style="stroke-width:.73081"/><rect id="rect4584-5-8" width="46.583" height="41.733" x="321.378" y="379.32" fill="#fff" style="stroke-width:.73081"/><polygon id="polygon4586-2-8" fill="#c2c2c2" points="123 136 123 130 54.499 130 60.069 136" transform="matrix(0.71666667,0,0,0.74523396,280.52794,286.16541)"/><rect id="rect4588-9-4" width="7.167" height="41.733" x="367.961" y="379.32" fill="#939393" style="stroke-width:.73081"/><rect id="rect4590-5-7" width="54.467" height="10.433" x="317.795" y="373.358" fill="#fff" style="stroke-width:.73081"/><rect id="rect4592-7-7" width="7.167" height="10.433" x="370.828" y="373.358" fill="#939393" style="stroke-width:.73081"/><text id="text5176" x="340.131" y="396.114" font-family="SegoeUI, 'Segoe UI'" font-size="16" transform="scale(0.98064606,1.0197359)" style="font-style:normal;font-variant:normal;font-weight:400;font-stretch:normal;font-size:11.6929px;font-family:SegoeUI,'Segoe UI';-inkscape-font-specification:'SegoeUI, Segoe UI, Normal';font-variant-ligatures:normal;font-variant-caps:normal;font-variant-numeric:normal;font-variant-east-asian:normal;stroke-width:.73081"><tspan id="tspan13394" x="340.131" y="396.114" style="stroke-width:.73081">2.1.0</tspan></text><text id="text4644" x="231.576" y="399.389" font-family="SegoeUI, 'Segoe UI'" font-size="16" transform="scale(0.98064606,1.0197359)" style="font-style:normal;font-variant:normal;font-weight:400;font-stretch:normal;font-size:11.6929px;font-family:SegoeUI,'Segoe UI';-inkscape-font-specification:'SegoeUI, Segoe UI, Normal';font-variant-ligatures:normal;font-variant-caps:normal;font-variant-numeric:normal;font-variant-east-asian:normal;stroke-width:.73081"><tspan id="tspan13392" x="231.576" y="399.389" style="stroke-width:.73081">2.0.0</tspan></text><path id="path4598" fill="#004880" d="m 111.3204,358.64226 v 7.55294 a 6.4141667,6.6698439 0 0 0 6.41416,6.66984 h 7.23833 a 6.4141667,6.6698439 0 0 0 6.41418,-6.66984 v -7.52313 a 6.4177501,6.67357 0 0 0 -6.41775,-6.67357 h -7.23476 a 6.3905167,6.6452512 0 0 0 -6.41416,6.64376 z m 5.3449,-2.65676 a 2.3986843,2.4942991 0 0 1 0,4.98859 v 0 a 2.3986843,2.4942991 0 0 1 0,-4.98859 z m 7.64468,6.06695 a 4.1487833,4.3141596 0 1 1 -4.14664,4.31417 4.1480667,4.3134141 0 0 1 4.14664,-4.31417 z m -13.99291,-12.53781 a 2.2689666,2.3594108 0 1 1 -2.26825,2.35866 2.2675334,2.3579204 0 0 1 2.26825,-2.35866 z" style="stroke-width:.73081"/><rect id="rect4584" width="46.583" height="41.733" x="114.192" y="382.741" fill="#fff" style="stroke-width:.73081"/><polygon id="polygon4586" fill="#c2c2c2" points="123 130 54.499 130 60.069 136 123 136" transform="matrix(0.71666667,0,0,0.74523396,73.342127,289.58646)"/><rect id="rect4588" width="7.167" height="41.733" x="160.775" y="382.741" fill="#939393" style="stroke-width:.73081"/><rect id="rect4590" width="54.467" height="10.433" x="110.609" y="376.779" fill="#fff" style="stroke-width:.73081"/><rect id="rect4592" width="7.167" height="10.433" x="163.642" y="376.779" fill="#939393" style="stroke-width:.73081"/><text id="text4596" x="126.386" y="400.17" font-family="SegoeUI, 'Segoe UI'" font-size="16" transform="scale(0.98064606,1.0197359)" style="font-style:normal;font-variant:normal;font-weight:400;font-stretch:normal;font-size:11.6929px;font-family:SegoeUI,'Segoe UI';-inkscape-font-specification:'SegoeUI, Segoe UI, Normal';font-variant-ligatures:normal;font-variant-caps:normal;font-variant-numeric:normal;font-variant-east-asian:normal;stroke-width:.73081"><tspan id="tspan13390" x="126.386" y="400.17" style="stroke-width:.73081">1.0.0</tspan></text><path id="path4820-0" fill="#004880" d="m 139.22883,92.728376 a 6.4012669,6.6564298 0 0 0 -6.41345,6.673573 v 7.212371 a 6.4012669,6.6564298 0 0 0 6.41345,6.67357 h 6.93232 a 6.4019834,6.6571751 0 0 0 6.41417,-6.67357 v -7.212371 a 6.4019834,6.6571751 0 0 0 -6.41417,-6.673573 z m -1.36166,3.502601 a 2.3986834,2.4942982 0 0 1 0,4.987853 v 0 a 2.3986834,2.4942982 0 0 1 0,-4.987853 z m 7.64468,6.066203 a 4.1487833,4.3141596 0 1 1 -4.14664,4.31416 4.1480667,4.3134141 0 0 1 4.14664,-4.31416 z M 131.52038,89.761598 a 2.2689666,2.3594108 0 1 1 -2.26827,2.359413 2.2682499,2.3586655 0 0 1 2.26827,-2.359413 z" style="stroke-width:.73081"/><path id="path5178-0" fill="#004880" d="m 329.87229,90.31382 a 6.4012669,6.6564298 0 0 0 -6.41346,6.673569 v 7.212371 a 6.4012669,6.6564298 0 0 0 6.41346,6.67357 h 6.93232 a 6.4019834,6.6571751 0 0 0 6.41416,-6.67357 v -7.212371 a 6.4019834,6.6571751 0 0 0 -6.41416,-6.673569 z m -1.36167,3.502599 a 2.3986834,2.4942982 0 0 1 0,4.98785 v 0 a 2.3986834,2.4942982 0 0 1 0,-4.98785 z m 7.64468,6.0662 a 4.1487833,4.3141596 0 1 1 -4.14662,4.314161 4.1480667,4.3134141 0 0 1 4.14662,-4.314161 z M 322.16383,87.347043 a 2.2689666,2.3594108 0 1 1 -2.26826,2.35941 2.2682499,2.3586655 0 0 1 2.26826,-2.35941 z" style="stroke-width:.73081"/><rect id="rect4584-5-2" width="46.583" height="41.733" x="137.006" y="123.521" fill="#fff" style="stroke-width:.73081"/><polygon id="polygon4586-2-1" fill="#c2c2c2" points="123 136 123 130 54.499 130 60.069 136" transform="matrix(0.71666667,0,0,0.74523396,96.155821,30.366457)"/><rect id="rect4588-9-3" width="7.167" height="41.733" x="183.589" y="123.521" fill="#939393" style="stroke-width:.73081"/><rect id="rect4590-5-9" width="54.467" height="10.433" x="133.422" y="117.559" fill="#fff" style="stroke-width:.73081"/><rect id="rect4592-7-1" width="7.167" height="10.433" x="186.456" y="117.559" fill="#939393" style="stroke-width:.73081"/><rect id="rect4584-5-8-7" width="46.583" height="41.733" x="330.051" y="120.175" fill="#fff" style="stroke-width:.73081"/><polygon id="polygon4586-2-8-1" fill="#c2c2c2" points="123 130 54.499 130 60.069 136 123 136" transform="matrix(0.71666667,0,0,0.74523396,289.20055,27.020795)"/><rect id="rect4588-9-4-5" width="7.167" height="41.733" x="376.634" y="120.175" fill="#939393" style="stroke-width:.73081"/><rect id="rect4590-5-7-5" width="54.467" height="10.433" x="326.467" y="114.213" fill="#fff" style="stroke-width:.73081"/><rect id="rect4592-7-7-6" width="7.167" height="10.433" x="379.501" y="114.213" fill="#939393" style="stroke-width:.73081"/><text id="text5176-0" x="327.8" y="152.285" font-family="SegoeUI, 'Segoe UI'" font-size="16" transform="scale(1.0437481,0.95808558)" style="font-style:normal;font-variant:normal;font-weight:400;font-stretch:normal;font-size:12.4456px;font-family:SegoeUI,'Segoe UI';-inkscape-font-specification:'SegoeUI, Segoe UI, Normal';font-variant-ligatures:normal;font-variant-caps:normal;font-variant-numeric:normal;font-variant-east-asian:normal;stroke-width:.777838"><tspan id="tspan13384" x="327.8" y="152.285" style="stroke-width:.777838">2.1.0</tspan></text><text id="text4644-2" x="151.288" y="146.354" font-family="SegoeUI, 'Segoe UI'" font-size="16" transform="scale(0.98064606,1.0197359)" style="font-style:normal;font-variant:normal;font-weight:400;font-stretch:normal;font-size:11.6929px;font-family:SegoeUI,'Segoe UI';-inkscape-font-specification:'SegoeUI, Segoe UI, Normal';font-variant-ligatures:normal;font-variant-caps:normal;font-variant-numeric:normal;font-variant-east-asian:normal;stroke-width:.73081"><tspan id="tspan13386" x="151.288" y="146.354" style="stroke-width:.73081">2.0.0</tspan></text><path id="path4598-4" fill="#004880" d="m 32.586651,100.61287 v 7.55295 a 6.4141667,6.6698439 0 0 0 6.414167,6.66984 h 7.238332 a 6.4141667,6.6698439 0 0 0 6.414167,-6.66984 v -7.52314 a 6.4177501,6.67357 0 0 0 -6.417749,-6.67357 h -7.23475 a 6.3905167,6.6452512 0 0 0 -6.414167,6.64376 z m 5.344901,-2.656758 a 2.3986837,2.4942985 0 0 1 0,4.988598 v 0 a 2.3986837,2.4942985 0 0 1 0,-4.988598 z m 7.644683,6.066948 a 4.1487833,4.3141596 0 1 1 -4.146633,4.31416 4.1480667,4.3134141 0 0 1 4.146633,-4.31416 z M 31.583317,91.485245 a 2.2689666,2.3594108 0 1 1 -2.268249,2.358664 2.2675334,2.3579204 0 0 1 2.268249,-2.358664 z" style="stroke-width:.73081"/><rect id="rect4584-9" width="46.583" height="41.733" x="35.458" y="124.711" fill="#fff" style="stroke-width:.73081"/><polygon id="polygon4586-3" fill="#c2c2c2" points="123 136 123 130 54.499 130 60.069 136" transform="matrix(0.71666667,0,0,0.74523396,-5.3916256,31.557079)"/><rect id="rect4588-3" width="7.167" height="41.733" x="82.042" y="124.711" fill="#939393" style="stroke-width:.73081"/><rect id="rect4590-8" width="54.467" height="10.433" x="31.875" y="118.749" fill="#fff" style="stroke-width:.73081"/><rect id="rect4592-5" width="7.167" height="10.433" x="84.908" y="118.749" fill="#939393" style="stroke-width:.73081"/><text id="text4596-1" x="46.645" y="145.494" font-family="SegoeUI, 'Segoe UI'" font-size="16" transform="scale(0.98064606,1.0197359)" style="font-style:normal;font-variant:normal;font-weight:400;font-stretch:normal;font-size:11.6929px;font-family:SegoeUI,'Segoe UI';-inkscape-font-specification:'SegoeUI, Segoe UI, Normal';font-variant-ligatures:normal;font-variant-caps:normal;font-variant-numeric:normal;font-variant-east-asian:normal;stroke-width:.73081"><tspan id="tspan13388" x="46.645" y="145.494" style="stroke-width:.73081">1.0.0</tspan></text><path id="path13122" fill="none" stroke="#737373" stroke-dasharray="2.529 2.529" stroke-miterlimit="10" stroke-width="1.265" d="M 95.699599,382.51009 H 55.244781 c -12.775203,0 -18.098206,-3.7554 -18.098206,-21.78127 V 226.28573"/><path id="path13122-7" fill="none" stroke="#737373" stroke-dasharray="3.461 3.461" stroke-miterlimit="10" stroke-width="1.73" d="m 386.43029,386.54572 33.49637,0.68143 c 10.5778,0.21519 14.96718,-3.54594 14.88053,-22.02968 l -0.64632,-137.85809" style="stroke-width:1.16492;stroke-linecap:square;stroke-linejoin:round;stroke-miterlimit:10;stroke-dasharray:2.32982,2.32982;stroke-dashoffset:0;paint-order:markers stroke fill"/><rect style="opacity:.998;fill:#b4a0ff;fill-opacity:1;stroke:#00070f;stroke-width:.74;stroke-linecap:square;stroke-linejoin:round;stroke-miterlimit:4;stroke-dasharray:none;paint-order:markers stroke fill" id="rect964" width="159.366" height="22.438" x="156.011" y="294.809"/><text id="text4578-3" x="167.841" y="305.761" font-family="SegoeUI, 'Segoe UI'" font-size="17.54" transform="scale(0.98064606,1.0197359)" style="font-style:normal;font-variant:normal;font-weight:400;font-stretch:normal;font-size:17.5395px;font-family:SegoeUI,'Segoe UI';-inkscape-font-specification:'SegoeUI, Segoe UI, Normal';font-variant-ligatures:normal;font-variant-caps:normal;font-variant-numeric:normal;font-variant-east-asian:normal;stroke-width:.731;stroke-miterlimit:4;stroke-dasharray:none"><tspan id="tspan989" x="167.841" y="305.761">Available packages</tspan></text></svg>