<svg xmlns="http://www.w3.org/2000/svg" xmlns:osb="http://www.openswatchbook.org/uri/2009/osb" xmlns:svg="http://www.w3.org/2000/svg" id="svg5370" width="463" height="490" version="1.1" viewBox="0 0 463 490"><metadata id="metadata5376"/><defs id="defs5374"><linearGradient id="linearGradient13520" osb:paint="solid"><stop style="stop-color:#f80000;stop-opacity:1" id="stop13518" offset="0"/></linearGradient><marker style="overflow:visible" id="marker7231" orient="auto" refX="0" refY="0"><path style="fill:#000;fill-opacity:1;fill-rule:evenodd;stroke:#000;stroke-width:1pt;stroke-opacity:1" id="path7229" d="M 0,0 5,-5 -12.5,0 5,5 Z" transform="matrix(-0.8,0,0,-0.8,-10,0)"/></marker><marker style="overflow:visible" id="marker7013" orient="auto" refX="0" refY="0"><path style="fill:#000;fill-opacity:1;fill-rule:evenodd;stroke:#000;stroke-width:1pt;stroke-opacity:1" id="path7011" d="m -2.5,-1 c 0,2.76 -2.24,5 -5,5 -2.76,0 -5,-2.24 -5,-5 0,-2.76 2.24,-5 5,-5 2.76,0 5,2.24 5,5 z" transform="matrix(0.4,0,0,0.4,2.96,0.4)"/></marker><marker style="overflow:visible" id="DotS" orient="auto" refX="0" refY="0"><path style="fill:#000;fill-opacity:1;fill-rule:evenodd;stroke:#000;stroke-width:1pt;stroke-opacity:1" id="path6500" d="m -2.5,-1 c 0,2.76 -2.24,5 -5,5 -2.76,0 -5,-2.24 -5,-5 0,-2.76 2.24,-5 5,-5 2.76,0 5,2.24 5,5 z" transform="matrix(0.2,0,0,0.2,1.48,0.2)"/></marker><marker style="overflow:visible" id="DotM-6" orient="auto" refX="0" refY="0"><path style="fill:#000;fill-opacity:1;fill-rule:evenodd;stroke:#000;stroke-width:1pt;stroke-opacity:1" id="path6497-2" d="m -2.5,-1 c 0,2.76 -2.24,5 -5,5 -2.76,0 -5,-2.24 -5,-5 0,-2.76 2.24,-5 5,-5 2.76,0 5,2.24 5,5 z" transform="matrix(0.4,0,0,0.4,2.96,0.4)"/></marker><marker style="overflow:visible" id="Arrow1Lend-1" orient="auto" refX="0" refY="0"><path style="fill:#000;fill-opacity:1;fill-rule:evenodd;stroke:#000;stroke-width:1pt;stroke-opacity:1" id="path6436-7" d="M 0,0 5,-5 -12.5,0 5,5 Z" transform="matrix(-0.8,0,0,-0.8,-10,0)"/></marker><marker style="overflow:visible" id="marker7231-9" orient="auto" refX="0" refY="0"><path style="fill:#000;fill-opacity:1;fill-rule:evenodd;stroke:#000;stroke-width:1pt;stroke-opacity:1" id="path7229-7" d="M 0,0 5,-5 -12.5,0 5,5 Z" transform="matrix(-0.8,0,0,-0.8,-10,0)"/></marker></defs><title id="title4556">blog-package-upstream-diagram-4</title><path id="path4566" fill="#cbe247" d="M 250.63333,33 H 439.11667 A 7.8833333,8.1975737 0 0 1 447,41.197574 V 229.74177 H 258.51667 a 7.8833333,8.1975737 0 0 1 -7.88334,-8.19758 z" style="stroke-width:.730811"/><path id="path4568" fill="#b0cdda" d="m 17,33 h 188.48333 a 7.8833333,8.1975737 0 0 1 7.88334,8.197574 V 229.74177 H 24.883333 A 7.8833333,8.1975737 0 0 1 17,221.54419 Z" style="stroke-width:.730811"/><path id="path4570" fill="#cadee6" d="M 213.36667,61.567054 V 41.197574 A 7.8833333,8.1975737 0 0 0 205.48333,33 H 17 v 28.567054 z" style="stroke-width:.730811"/><path id="path4572" fill="#e6f26d" d="M 447,61.567054 V 41.197574 A 7.8833333,8.1975737 0 0 0 439.11667,33 H 250.63333 v 28.567054 z" style="stroke-width:.730811"/><text id="text4580" x="303.877" y="51.362" font-family="SegoeUI, Segoe UI" font-size="24" transform="scale(0.98064606,1.0197359)" style="font-style:normal;font-variant:normal;font-weight:400;font-stretch:normal;font-size:17.5395px;font-family:SegoeUI,'Segoe UI';-inkscape-font-specification:'SegoeUI, Segoe UI, Normal';font-variant-ligatures:normal;font-variant-caps:normal;font-variant-numeric:normal;font-variant-east-asian:normal;stroke-width:.730811"><tspan id="tspan5482" x="303.877" y="51.362" style="stroke-width:.730811">Public registry</tspan></text><path id="path4600" fill="#b4a0ff" d="M 96.661212,311.61229 H 374.33795 a 11.613855,6.3318051 0 0 1 11.61385,6.33181 V 463 H 108.27507 a 11.613855,6.3318051 0 0 1 -11.613858,-6.33181 z" style="stroke-width:.779578"/><path id="path4820" fill="#004880" d="m 188.79647,355.50118 a 6.4012667,6.6564298 0 0 0 -6.41345,6.67358 v 7.21237 a 6.4012667,6.6564298 0 0 0 6.41345,6.67357 h 6.93231 a 6.4019833,6.657175 0 0 0 6.41417,-6.67357 v -7.21237 a 6.4019833,6.657175 0 0 0 -6.41417,-6.67358 z m -1.36167,3.5026 a 2.3986833,2.4942981 0 0 1 0,4.98786 v 0 a 2.3986833,2.4942981 0 0 1 0,-4.98786 z m 7.64468,6.06621 a 4.1487833,4.3141594 0 1 1 -4.14663,4.31416 4.1480667,4.3134142 0 0 1 4.14663,-4.31416 z M 181.088,352.53441 a 2.2689667,2.3594107 0 1 1 -2.26825,2.35941 2.26825,2.3586655 0 0 1 2.26825,-2.35941 z" style="stroke-width:.730811"/><rect id="rect4872" width="0" height="0" x="187.567" y="179.066" fill="#447995" style="stroke-width:.730811"/><path id="path5178" fill="#004880" d="m 261.46816,355.87468 a 6.4012667,6.6564298 0 0 0 -6.41345,6.67357 v 7.21238 a 6.4012667,6.6564298 0 0 0 6.41345,6.67357 h 6.93231 a 6.4019833,6.657175 0 0 0 6.41417,-6.67357 v -7.21238 a 6.4019833,6.657175 0 0 0 -6.41417,-6.67357 z m -1.36167,3.5026 a 2.3986833,2.4942981 0 0 1 0,4.98785 v 0 a 2.3986833,2.4942981 0 0 1 0,-4.98785 z m 7.64468,6.06621 a 4.1487833,4.3141594 0 1 1 -4.14663,4.31415 4.1480667,4.3134142 0 0 1 4.14663,-4.31415 z M 253.75969,352.9079 a 2.2689667,2.3594107 0 1 1 -2.26825,2.35942 2.26825,2.3586655 0 0 1 2.26825,-2.35942 z" style="stroke-width:.730811"/><rect id="rect4584-5" width="46.583" height="41.733" x="183.356" y="386.294" fill="#fff" style="stroke-width:.730811"/><polygon id="polygon4586-2" fill="#c2c2c2" points="123 136 123 130 54.499 130 60.069 136" transform="matrix(0.71666667,0,0,0.74523397,141.9698,293.13926)"/><rect id="rect4588-9" width="7.167" height="41.733" x="229.403" y="386.294" fill="#939393" style="stroke-width:.730811"/><rect id="rect4590-5" width="54.467" height="10.433" x="179.236" y="380.332" fill="#fff" style="stroke-width:.730811"/><rect id="rect4592-7" width="7.167" height="10.433" x="231.734" y="380.332" fill="#939393" style="stroke-width:.730811"/><rect id="rect4584-5-8" width="46.583" height="41.733" x="254.139" y="385.736" fill="#fff" style="stroke-width:.730811"/><polygon id="polygon4586-2-8" fill="#c2c2c2" points="123 136 123 130 54.499 130 60.069 136" transform="matrix(0.71666667,0,0,0.74523397,213.28912,292.58165)"/><rect id="rect4588-9-4" width="7.167" height="39.503" x="300.186" y="388.524" fill="#939393" style="stroke-width:.711013"/><rect id="rect4590-5-7" width="54.467" height="10.433" x="250.556" y="379.774" fill="#fff" style="stroke-width:.730811"/><rect id="rect4592-7-7" width="7.167" height="10.433" x="320.749" y="380.889" fill="#939393" style="stroke-width:.730811"/><text id="text5176" x="271.566" y="402.406" font-family="SegoeUI, 'Segoe UI'" font-size="16" transform="scale(0.98064606,1.0197359)" style="font-style:normal;font-variant:normal;font-weight:400;font-stretch:normal;font-size:11.693px;font-family:SegoeUI,'Segoe UI';-inkscape-font-specification:'SegoeUI, Segoe UI, Normal';font-variant-ligatures:normal;font-variant-caps:normal;font-variant-numeric:normal;font-variant-east-asian:normal;stroke-width:.730811"><tspan id="tspan13394" x="271.566" y="402.406" style="stroke-width:.730811">2.1.0</tspan></text><text id="text4644" x="198.006" y="404.041" font-family="SegoeUI, 'Segoe UI'" font-size="16" transform="scale(0.98064606,1.0197359)" style="font-style:normal;font-variant:normal;font-weight:400;font-stretch:normal;font-size:11.693px;font-family:SegoeUI,'Segoe UI';-inkscape-font-specification:'SegoeUI, Segoe UI, Normal';font-variant-ligatures:normal;font-variant-caps:normal;font-variant-numeric:normal;font-variant-east-asian:normal;stroke-width:.730811"><tspan id="tspan13392" x="198.006" y="404.041" style="stroke-width:.730811">2.0.0</tspan></text><path id="path4598" fill="#004880" d="m 108.42982,362.27046 v 7.55294 a 6.4141667,6.669844 0 0 0 6.41416,6.66985 h 7.23834 a 6.4141667,6.669844 0 0 0 6.41416,-6.66985 v -7.52313 a 6.41775,6.6735702 0 0 0 -6.41775,-6.67357 h -7.23475 a 6.3905167,6.6452513 0 0 0 -6.41416,6.64376 z m 5.3449,-2.65676 a 2.3986851,2.4943 0 0 1 0,4.9886 v 0 a 2.3986851,2.4943 0 0 1 0,-4.9886 z m 7.64468,6.06695 a 4.1487833,4.3141594 0 1 1 -4.14663,4.31416 4.1480667,4.3134142 0 0 1 4.14663,-4.31416 z m -13.99292,-12.53782 a 2.2689667,2.3594107 0 1 1 -2.26825,2.35867 2.2675333,2.3579203 0 0 1 2.26825,-2.35867 z" style="stroke-width:.730811"/><rect id="rect4584" width="46.583" height="41.733" x="108.62" y="386.369" fill="#fff" style="stroke-width:.730811"/><polygon id="polygon4586" fill="#c2c2c2" points="54.499 130 60.069 136 123 136 123 130" transform="matrix(0.71666667,0,0,0.74523397,67.770362,293.21466)"/><rect id="rect4588" width="7.167" height="41.733" x="155.204" y="386.369" fill="#939393" style="stroke-width:.730811"/><rect id="rect4590" width="54.467" height="10.433" x="105.037" y="380.407" fill="#fff" style="stroke-width:.730811"/><rect id="rect4592" width="7.167" height="10.433" x="158.07" y="380.407" fill="#939393" style="stroke-width:.730811"/><text id="text4596" x="120.704" y="403.728" font-family="SegoeUI, 'Segoe UI'" font-size="16" transform="scale(0.98064606,1.0197359)" style="font-style:normal;font-variant:normal;font-weight:400;font-stretch:normal;font-size:11.693px;font-family:SegoeUI,'Segoe UI';-inkscape-font-specification:'SegoeUI, Segoe UI, Normal';font-variant-ligatures:normal;font-variant-caps:normal;font-variant-numeric:normal;font-variant-east-asian:normal;stroke-width:.730811"><tspan id="tspan13390" x="120.704" y="403.728" style="stroke-width:.730811">1.0.0</tspan></text><path id="path4820-0" fill="#004880" d="m 139.01942,95.798966 a 6.4012667,6.6564298 0 0 0 -6.41345,6.673574 v 7.21237 a 6.4012667,6.6564298 0 0 0 6.41345,6.67357 h 6.93232 a 6.4019833,6.657175 0 0 0 6.41417,-6.67357 v -7.21237 a 6.4019833,6.657175 0 0 0 -6.41417,-6.673574 z m -1.36166,3.5026 a 2.3986833,2.4942981 0 0 1 0,4.987854 v 0 a 2.3986833,2.4942981 0 0 1 0,-4.987854 z m 7.64468,6.066204 a 4.1487833,4.3141594 0 1 1 -4.14663,4.31416 4.1480667,4.3134142 0 0 1 4.14663,-4.31416 z M 131.31096,92.83219 a 2.2689667,2.3594107 0 1 1 -2.26825,2.359411 2.26825,2.3586655 0 0 1 2.26825,-2.359411 z" style="stroke-width:.730811"/><path id="path5178-0" fill="#004880" d="m 278.18429,96.730069 a 6.4012667,6.6564298 0 0 0 -6.41345,6.673571 v 7.21237 a 6.4012667,6.6564298 0 0 0 6.41345,6.67357 h 6.93231 a 6.4019833,6.657175 0 0 0 6.41417,-6.67357 v -7.21237 a 6.4019833,6.657175 0 0 0 -6.41417,-6.673571 z m -1.36167,3.502601 a 2.3986833,2.4942981 0 0 1 0,4.98785 v 0 a 2.3986833,2.4942981 0 0 1 0,-4.98785 z m 7.64468,6.0662 a 4.1487833,4.3141594 0 1 1 -4.14663,4.31416 4.1480667,4.3134142 0 0 1 4.14663,-4.31416 z M 270.47582,93.763293 a 2.2689667,2.3594107 0 1 1 -2.26825,2.35941 2.26825,2.3586655 0 0 1 2.26825,-2.35941 z" style="stroke-width:.730811"/><rect id="rect4584-5-2" width="46.583" height="41.733" x="136.796" y="126.591" fill="#fff" style="stroke-width:.730811"/><polygon id="polygon4586-2-1" fill="#c2c2c2" points="123 136 123 130 54.499 130 60.069 136" transform="matrix(0.71666667,0,0,0.74523397,95.946409,33.437045)"/><rect id="rect4588-9-3" width="7.167" height="41.733" x="183.38" y="126.591" fill="#939393" style="stroke-width:.730811"/><rect id="rect4590-5-9" width="54.467" height="10.433" x="133.213" y="120.629" fill="#fff" style="stroke-width:.730811"/><rect id="rect4592-7-1" width="7.167" height="10.433" x="186.246" y="120.629" fill="#939393" style="stroke-width:.730811"/><rect id="rect4584-5-8-7" width="46.583" height="41.733" x="278.363" y="126.591" fill="#fff" style="stroke-width:.730811"/><polygon id="polygon4586-2-8-1" fill="#c2c2c2" points="54.499 130 60.069 136 123 136 123 130" transform="matrix(0.71666667,0,0,0.74523397,237.51254,33.437046)"/><rect id="rect4588-9-4-5" width="7.167" height="41.733" x="324.946" y="126.591" fill="#939393" style="stroke-width:.730811"/><rect id="rect4590-5-7-5" width="54.467" height="10.433" x="274.779" y="120.629" fill="#fff" style="stroke-width:.730811"/><rect id="rect4592-7-7-6" width="7.167" height="10.433" x="327.813" y="120.629" fill="#939393" style="stroke-width:.730811"/><text id="text5176-0" x="278.278" y="158.982" font-family="SegoeUI, 'Segoe UI'" font-size="16" transform="scale(1.0437481,0.95808559)" style="font-style:normal;font-variant:normal;font-weight:400;font-stretch:normal;font-size:12.4454px;font-family:SegoeUI,'Segoe UI';-inkscape-font-specification:'SegoeUI, Segoe UI, Normal';font-variant-ligatures:normal;font-variant-caps:normal;font-variant-numeric:normal;font-variant-east-asian:normal;stroke-width:.777838"><tspan id="tspan13384" x="278.278" y="158.982" style="stroke-width:.777838">2.1.0</tspan></text><text id="text4644-2" x="151.075" y="149.365" font-family="SegoeUI, 'Segoe UI'" font-size="16" transform="scale(0.98064606,1.0197359)" style="font-style:normal;font-variant:normal;font-weight:400;font-stretch:normal;font-size:11.693px;font-family:SegoeUI,'Segoe UI';-inkscape-font-specification:'SegoeUI, Segoe UI, Normal';font-variant-ligatures:normal;font-variant-caps:normal;font-variant-numeric:normal;font-variant-east-asian:normal;stroke-width:.730811"><tspan id="tspan13386" x="151.075" y="149.365" style="stroke-width:.730811">2.0.0</tspan></text><path id="path4598-4" fill="#004880" d="m 32.37724,103.68346 v 7.55295 a 6.4141667,6.669844 0 0 0 6.414167,6.66984 h 7.238333 a 6.4141667,6.669844 0 0 0 6.414167,-6.66984 v -7.52314 a 6.41775,6.6735702 0 0 0 -6.41775,-6.673571 h -7.23475 a 6.3905167,6.6452513 0 0 0 -6.414167,6.643761 z m 5.3449,-2.65676 a 2.3986851,2.4943 0 0 1 0,4.9886 v 0 a 2.3986851,2.4943 0 0 1 0,-4.9886 z m 7.644683,6.06695 a 4.1487833,4.3141594 0 1 1 -4.146633,4.31416 4.1480667,4.3134142 0 0 1 4.146633,-4.31416 z M 31.373907,94.555834 a 2.2689667,2.3594107 0 1 1 -2.26825,2.358665 2.2675333,2.3579203 0 0 1 2.26825,-2.358665 z" style="stroke-width:.730811"/><rect id="rect4584-9" width="46.583" height="41.733" x="35.249" y="127.782" fill="#fff" style="stroke-width:.730811"/><polygon id="polygon4586-3" fill="#c2c2c2" points="123 136 123 130 54.499 130 60.069 136" transform="matrix(0.71666667,0,0,0.74523397,-5.6010365,34.627668)"/><rect id="rect4588-3" width="7.167" height="41.733" x="81.832" y="127.782" fill="#939393" style="stroke-width:.730811"/><rect id="rect4590-8" width="54.467" height="10.433" x="31.666" y="121.82" fill="#fff" style="stroke-width:.730811"/><rect id="rect4592-5" width="7.167" height="10.433" x="84.699" y="121.82" fill="#939393" style="stroke-width:.730811"/><text id="text4596-1" x="46.431" y="148.506" font-family="SegoeUI, 'Segoe UI'" font-size="16" transform="scale(0.98064606,1.0197359)" style="font-style:normal;font-variant:normal;font-weight:400;font-stretch:normal;font-size:11.693px;font-family:SegoeUI,'Segoe UI';-inkscape-font-specification:'SegoeUI, Segoe UI, Normal';font-variant-ligatures:normal;font-variant-caps:normal;font-variant-numeric:normal;font-variant-east-asian:normal;stroke-width:.730811"><tspan id="tspan13388" x="46.431" y="148.506" style="stroke-width:.730811">1.0.0</tspan></text><path id="path13122" fill="none" stroke="#737373" stroke-dasharray="2.529 2.529" stroke-miterlimit="10" stroke-width="1.265" d="M 95.490186,385.58067 H 55.03537 c -12.775204,0 -18.098206,-3.75539 -18.098206,-21.78128 V 229.35632"/><path id="path13122-7" fill="none" stroke="#737373" stroke-dasharray="3.461 3.461" stroke-miterlimit="10" stroke-width="1.73" d="m 386.22088,389.6163 33.49637,0.68145 c 10.5778,0.21516 14.96718,-3.54596 14.88053,-22.02971 l -0.64632,-137.85809" style="stroke-width:1.16491;stroke-linecap:square;stroke-linejoin:round;stroke-miterlimit:10;stroke-dasharray:2.32982,2.32982;stroke-dashoffset:0;paint-order:markers stroke fill"/><path id="path5178-0-9" fill="#004880" d="m 377.68546,96.210164 a 6.4012667,6.6564298 0 0 0 -6.41345,6.673566 v 7.21238 a 6.4012667,6.6564298 0 0 0 6.41345,6.67357 h 6.93232 a 6.4019833,6.657175 0 0 0 6.41417,-6.67357 v -7.21238 a 6.4019833,6.657175 0 0 0 -6.41417,-6.673566 z m -1.36166,3.5026 a 2.3986833,2.4942981 0 0 1 0,4.987846 v 0 a 2.3986833,2.4942981 0 0 1 0,-4.987846 z m 7.64468,6.066206 a 4.1487833,4.3141594 0 1 1 -4.14663,4.31416 4.1480667,4.3134142 0 0 1 4.14663,-4.31416 z M 369.977,93.243388 a 2.2689667,2.3594107 0 1 1 -2.26825,2.35941 2.26825,2.3586655 0 0 1 2.26825,-2.35941 z" style="stroke-width:.730811"/><rect id="rect4584-5-8-7-9" width="46.583" height="41.733" x="377.864" y="126.071" fill="#fff" style="stroke-width:.730811"/><polygon id="polygon4586-2-8-1-6" fill="#c2c2c2" points="54.499 130 60.069 136 123 136 123 130" transform="matrix(0.71666667,0,0,0.74523397,337.01371,32.917137)"/><rect id="rect4588-9-4-5-6" width="7.167" height="41.733" x="424.447" y="126.071" fill="#939393" style="stroke-width:.730811"/><rect id="rect4590-5-7-5-7" width="54.467" height="10.433" x="374.28" y="120.109" fill="#fff" style="stroke-width:.730811"/><rect id="rect4592-7-7-6-1" width="7.167" height="10.433" x="427.314" y="120.109" fill="#939393" style="stroke-width:.730811"/><text id="text5176-0-8" x="373.609" y="158.439" font-family="SegoeUI, 'Segoe UI'" font-size="16" transform="scale(1.0437481,0.95808559)" style="font-style:normal;font-variant:normal;font-weight:400;font-stretch:normal;font-size:12.4454px;font-family:SegoeUI,'Segoe UI';-inkscape-font-specification:'SegoeUI, Segoe UI, Normal';font-variant-ligatures:normal;font-variant-caps:normal;font-variant-numeric:normal;font-variant-east-asian:normal;stroke-width:.777838"><tspan id="tspan13444" x="373.609" y="158.439" style="stroke-width:.777838">2.2.0</tspan></text><path id="path5178-0-9-9" fill="#004880" d="m 334.78664,356.05659 a 6.4012667,6.6564298 0 0 0 -6.41345,6.67357 v 7.21238 a 6.4012667,6.6564298 0 0 0 6.41345,6.67357 h 6.93232 a 6.4019833,6.657175 0 0 0 6.41416,-6.67357 v -7.21238 a 6.4019833,6.657175 0 0 0 -6.41416,-6.67357 z m -1.36167,3.5026 a 2.3986833,2.4942981 0 0 1 0,4.98785 v 0 a 2.3986833,2.4942981 0 0 1 0,-4.98785 z m 7.64469,6.06621 a 4.1487833,4.3141594 0 1 1 -4.14664,4.31416 4.1480667,4.3134142 0 0 1 4.14664,-4.31416 z m -13.99149,-12.53558 a 2.2689667,2.3594107 0 1 1 -2.26825,2.35941 2.26825,2.3586655 0 0 1 2.26825,-2.35941 z" style="stroke-width:.730811"/><rect id="rect4584-5-8-7-9-3" width="46.583" height="40.06" x="325.313" y="386.475" fill="#fff" style="stroke-width:.716014"/><polygon id="polygon4586-2-8-1-6-4" fill="#c2c2c2" points="60.069 136 123 136 123 130 54.499 130" transform="matrix(0.71666667,0,0,0.74523397,284.46265,293.32118)"/><rect id="rect4588-9-4-5-6-4" width="7.167" height="41.733" x="371.896" y="386.475" fill="#939393" style="stroke-width:.730811"/><rect id="rect4590-5-7-5-7-8" width="56.075" height="10.433" x="320.121" y="380.514" fill="#fff" style="stroke-width:.741524"/><rect id="rect4592-7-7-6-1-0" width="7.167" height="10.433" x="374.763" y="380.514" fill="#939393" style="stroke-width:.730811"/><text id="text5176-0-8-4" x="323.26" y="430.236" font-family="SegoeUI, 'Segoe UI'" font-size="16" transform="scale(1.0437481,0.95808559)" style="font-style:normal;font-variant:normal;font-weight:400;font-stretch:normal;font-size:12.4454px;font-family:SegoeUI,'Segoe UI';-inkscape-font-specification:'SegoeUI, Segoe UI, Normal';font-variant-ligatures:normal;font-variant-caps:normal;font-variant-numeric:normal;font-variant-east-asian:normal;stroke-width:.777838"><tspan id="tspan13444-0" x="323.26" y="430.236" style="stroke-width:.777838">2.2.0</tspan></text><rect id="rect4592-7-7-6-1-0-0" width="7.167" height="10.433" x="302.061" y="379.578" fill="#939393" style="stroke-width:.730811"/><text id="text4578-0" x="45.037" y="183.054" font-family="SegoeUI, 'Segoe UI'" font-size="24" transform="scale(0.98064606,1.0197359)" style="font-style:normal;font-variant:normal;font-weight:400;font-stretch:normal;font-size:9.74415px;font-family:SegoeUI,'Segoe UI';-inkscape-font-specification:'SegoeUI, Segoe UI, Normal';font-variant-ligatures:normal;font-variant-caps:normal;font-variant-numeric:normal;font-variant-east-asian:normal;stroke-width:.219244;stroke-miterlimit:7;stroke-dasharray:none"><tspan id="tspan14424" x="45.037" y="183.054" style="stroke-width:.219244">Private</tspan></text><text id="text4578-0-8-9" x="152.451" y="180.442" font-family="SegoeUI, 'Segoe UI'" font-size="24" transform="scale(0.98064606,1.0197359)" style="font-style:normal;font-variant:normal;font-weight:400;font-stretch:normal;font-size:9.74415px;font-family:SegoeUI,'Segoe UI';-inkscape-font-specification:'SegoeUI, Segoe UI, Normal';font-variant-ligatures:normal;font-variant-caps:normal;font-variant-numeric:normal;font-variant-east-asian:normal;stroke-width:.219244;stroke-miterlimit:7;stroke-dasharray:none"><tspan id="tspan14434" x="152.451" y="180.442" style="stroke-width:.219244">Public</tspan></text><text id="text4578-0-8-4" x="151.357" y="213.798" font-family="SegoeUI, 'Segoe UI'" font-size="24" transform="scale(0.98064606,1.0197359)" style="font-style:normal;font-variant:normal;font-weight:400;font-stretch:normal;font-size:9.74415px;font-family:SegoeUI,'Segoe UI';-inkscape-font-specification:'SegoeUI, Segoe UI, Normal';font-variant-ligatures:normal;font-variant-caps:normal;font-variant-numeric:normal;font-variant-east-asian:normal;stroke-width:.219244;stroke-miterlimit:7;stroke-dasharray:none"><tspan id="tspan14432" x="151.357" y="213.798" style="stroke-width:.219244">Private</tspan></text><path style="fill:none;stroke:#000;stroke-width:.365406;stroke-linecap:butt;stroke-linejoin:miter;stroke-miterlimit:4;stroke-dasharray:none;stroke-opacity:1;marker-end:url(#marker7231-9)" id="path13920" d="m 161.93362,187.1214 c 0,20.07398 0,20.07398 0,20.07398"/><text id="text4578" x="95.738" y="51.882" font-family="SegoeUI, 'Segoe UI'" font-size="17.54" transform="scale(0.98064606,1.0197359)" style="font-style:normal;font-variant:normal;font-weight:400;font-stretch:normal;font-size:17.5395px;font-family:SegoeUI,'Segoe UI';-inkscape-font-specification:'SegoeUI, Segoe UI, Normal';font-variant-ligatures:normal;font-variant-caps:normal;font-variant-numeric:normal;font-variant-east-asian:normal;stroke-width:.731;stroke-miterlimit:4;stroke-dasharray:none"><tspan id="tspan963" x="95.738" y="51.882">Feed</tspan></text><rect style="opacity:.998;fill:#b4a0ff;fill-opacity:1;stroke:#00070f;stroke-width:.74;stroke-linecap:square;stroke-linejoin:round;stroke-miterlimit:4;stroke-dasharray:none;paint-order:markers stroke fill" id="rect964" width="159.366" height="22.438" x="159.004" y="288.823"/><text id="text4578-3" x="170.893" y="299.891" font-family="SegoeUI, 'Segoe UI'" font-size="17.54" transform="scale(0.98064606,1.0197359)" style="font-style:normal;font-variant:normal;font-weight:400;font-stretch:normal;font-size:17.5395px;font-family:SegoeUI,'Segoe UI';-inkscape-font-specification:'SegoeUI, Segoe UI, Normal';font-variant-ligatures:normal;font-variant-caps:normal;font-variant-numeric:normal;font-variant-east-asian:normal;stroke-width:.731;stroke-miterlimit:4;stroke-dasharray:none"><tspan id="tspan989" x="170.893" y="299.891">Available packages</tspan></text></svg>