<svg xmlns="http://www.w3.org/2000/svg" xmlns:svg="http://www.w3.org/2000/svg" id="svg196" width="463" height="490" version="1.1" viewBox="0 0 463 490"><metadata id="metadata202"/><defs id="defs200"><clipPath id="clip0"><rect id="rect636" width="636" height="620" x="0" y="0" fill="#fff"/></clipPath></defs><title id="title2">blog-package-upstream-diagram-1</title><rect style="fill:#fff;fill-rule:evenodd;fill-opacity:1" id="rect105" width="445.2" height="468.395" x="11.972" y="10.475"/><path id="path4" fill="#cbe247" d="M 250.63333,33 H 439.11667 A 7.8833333,8.1975737 0 0 1 447,41.197574 V 229.74177 H 258.51667 a 7.8833333,8.1975737 0 0 1 -7.88334,-8.19758 z" style="stroke-width:.730811"/><path id="path6" fill="#b0cdda" d="m 17,33 h 188.48333 a 7.8833333,8.1975737 0 0 1 7.88334,8.197574 V 229.74177 H 24.883333 A 7.8833333,8.1975737 0 0 1 17,221.54419 Z" style="stroke-width:.730811"/><path id="path8" fill="#cadee6" d="M 213.36667,61.567054 V 41.197574 A 7.8833333,8.1975737 0 0 0 205.48333,33 H 17 v 28.567054 z" style="stroke-width:.730811"/><path id="path10" fill="#e6f26d" d="M 447,61.567054 V 41.197574 A 7.8833333,8.1975737 0 0 0 439.11667,33 H 250.63333 v 28.567054 z" style="stroke-width:.730811"/><text id="text16" x="83.04" y="51.362" font-family="SegoeUI, 'Segoe UI'" font-size="17.54" transform="scale(0.98064606,1.0197359)" style="stroke-width:.730811"><tspan id="tspan12" letter-spacing="-.034em" style="stroke-width:.618677">F</tspan><tspan id="tspan14" x="91.004" y="51.362" style="stroke-width:.730811">abrikam</tspan></text><text id="text18" x="322.469" y="51.362" font-family="SegoeUI, 'Segoe UI'" font-size="17.54" transform="scale(0.98064606,1.0197359)" style="stroke-width:.730811">Contoso</text><text id="text20" x="111.034" y="110.558" font-family="SegoeUI, 'Segoe UI'" font-size="11.693" transform="scale(0.98064606,1.0197359)" style="stroke-width:.730811">Widgets</text><rect id="rect22" width="46.583" height="41.423" x="88.756" y="124.532" fill="#fff" style="stroke-width:.730811"/><polygon id="polygon24" fill="#c2c2c2" points="182.777 160.602 115.264 160.602 120.753 166.515 182.777 166.515" transform="matrix(0.71666667,0,0,0.74523397,4.8166667,8.407279)"/><rect id="rect26" width="7.372" height="41.423" x="135.337" y="124.532" fill="#939393" style="stroke-width:.730811"/><rect id="rect28" width="54.346" height="10.633" x="84.873" y="118.95" fill="#fff" style="stroke-width:.730811"/><rect id="rect30" width="7.372" height="10.633" x="138.287" y="118.95" fill="#939393" style="stroke-width:.730811"/><text id="text34" x="102.544" y="142.714" font-family="SegoeUI, 'Segoe UI'" font-size="11.693" transform="scale(0.98064606,1.0197359)" style="stroke-width:.730811">1.0.0<tspan id="tspan32" x="102.544" y="156.745" style="stroke-width:.730811">2.0.0</tspan></text><path id="path36" fill="#004880" d="m 90.355133,93.846118 a 6.40055,6.6556846 0 0 0 -6.41345,6.672822 v 7.21312 a 6.4012667,6.6564298 0 0 0 6.41345,6.67357 h 6.932317 a 6.4019833,6.657175 0 0 0 6.41417,-6.67357 v -7.21386 a 6.4012667,6.6564298 0 0 0 -6.41417,-6.672827 z m -1.361666,3.5026 a 2.3986833,2.4942981 0 0 1 0,4.988592 v 0 a 2.3986833,2.4942981 0 0 1 0,-4.988592 z m 7.644683,6.066952 a 4.1487833,4.3141594 0 1 1 -4.146633,4.31416 4.1480667,4.3134142 0 0 1 4.146633,-4.31416 z M 82.646667,90.880087 a 2.2689667,2.3594107 0 1 1 -2.26825,2.358665 2.2675333,2.3579203 0 0 1 2.26825,-2.358665 z" style="stroke-width:.730811"/><text id="text38" x="349.356" y="110.558" font-family="SegoeUI, 'Segoe UI'" font-size="11.693" transform="scale(0.98064606,1.0197359)" style="stroke-width:.730811">Gizmos</text><rect id="rect40" width="46.583" height="41.423" x="322.389" y="124.532" fill="#fff" style="stroke-width:.730811"/><polygon id="polygon42" fill="#c2c2c2" points="508.777 160.602 441.264 160.602 446.753 166.515 508.777 166.515" transform="matrix(0.71666667,0,0,0.74523397,4.8166667,8.407279)"/><rect id="rect44" width="7.372" height="41.423" x="368.971" y="124.532" fill="#939393" style="stroke-width:.730811"/><rect id="rect46" width="54.346" height="10.633" x="318.507" y="118.95" fill="#fff" style="stroke-width:.730811"/><rect id="rect48" width="7.372" height="10.633" x="371.92" y="118.95" fill="#939393" style="stroke-width:.730811"/><text id="text52" x="340.788" y="142.714" font-family="SegoeUI, 'Segoe UI'" font-size="11.693" transform="scale(0.98064606,1.0197359)" style="stroke-width:.730811">1.0.0<tspan id="tspan50" x="340.788" y="156.745" style="stroke-width:.730811">3.0.0</tspan></text><path id="path54" fill="#004880" d="m 323.98847,93.846118 a 6.40055,6.6556846 0 0 0 -6.41345,6.672822 v 7.21312 a 6.4012667,6.6564298 0 0 0 6.41345,6.67357 h 6.93231 a 6.4019833,6.657175 0 0 0 6.41417,-6.67357 v -7.21386 a 6.4012667,6.6564298 0 0 0 -6.41417,-6.672827 z m -1.36167,3.5026 a 2.3986833,2.4942981 0 0 1 0,4.988592 v 0 a 2.3986833,2.4942981 0 0 1 0,-4.988592 z m 7.64468,6.066952 a 4.1487833,4.3141594 0 1 1 -4.14663,4.31416 4.1480667,4.3134142 0 0 1 4.14663,-4.31416 z M 316.28,90.880087 a 2.2689667,2.3594107 0 1 1 -2.26825,2.358665 2.2675333,2.3579203 0 0 1 2.26825,-2.358665 z" style="stroke-width:.730811"/><path id="path56" fill="#b4a0ff" d="M 133.81667,267.00347 H 322.3 a 7.8833333,8.1975737 0 0 1 7.88333,8.19757 V 463 H 141.7 a 7.8833333,8.1975737 0 0 1 -7.88333,-8.19757 z" style="stroke-width:.730811"/><path id="path58" fill="#c7b8ff" d="M 330.18333,296.39847 V 275.20104 A 7.8833333,8.1975737 0 0 0 322.3,267.00347 H 133.81667 v 29.395 z" style="stroke-width:.730811"/><text id="text64" x="172.321" y="280.837" font-family="SegoeUI, 'Segoe UI'" font-size="17.54" transform="scale(0.98064606,1.0197359)" style="stroke-width:.730811">Adventure<tspan id="tspan60" x="252.602" y="280.837" letter-spacing="-.039em" style="stroke-width:.618677">W</tspan><tspan id="tspan62" x="268.3" y="280.837" style="stroke-width:.730811">orks</tspan></text><text id="text66" x="186.93" y="343.687" font-family="SegoeUI, 'Segoe UI'" font-size="11.693" transform="scale(0.98064606,1.0197359)" style="stroke-width:.730811">Gadgets</text><rect id="rect68" width="46.583" height="41.423" x="163.289" y="362.262" fill="#fff" style="stroke-width:.730811"/><polygon id="polygon70" fill="#c2c2c2" points="286.777 479.602 219.264 479.602 224.753 485.515 286.777 485.515" transform="matrix(0.71666667,0,0,0.74523397,4.8166667,8.407279)"/><rect id="rect72" width="7.372" height="41.423" x="209.871" y="362.262" fill="#737373" style="stroke-width:.730811"/><rect id="rect74" width="54.346" height="10.633" x="159.407" y="356.68" fill="#fff" style="stroke-width:.730811"/><rect id="rect76" width="7.372" height="10.633" x="212.82" y="356.68" fill="#737373" style="stroke-width:.730811"/><text id="text80" x="178.548" y="375.842" font-family="SegoeUI, 'Segoe UI'" font-size="11.693" transform="scale(0.98064606,1.0197359)" style="stroke-width:.730811">1.0.0<tspan id="tspan78" x="178.548" y="389.874" style="stroke-width:.730811">2.0.0</tspan></text><path id="path82" fill="#004880" d="m 164.88847,331.57575 a 6.40055,6.6556846 0 0 0 -6.41345,6.67283 v 7.21312 a 6.4012667,6.6564298 0 0 0 6.41345,6.67357 h 6.93231 a 6.4019833,6.657175 0 0 0 6.41417,-6.67357 v -7.21387 a 6.4012667,6.6564298 0 0 0 -6.41417,-6.67282 z m -1.36167,3.5026 a 2.3986851,2.4943 0 0 1 0,4.9886 v 0 a 2.3986851,2.4943 0 0 1 0,-4.9886 z m 7.64468,6.06695 a 4.1487833,4.3141594 0 1 1 -4.14663,4.31416 4.1480667,4.3134142 0 0 1 4.14663,-4.31416 z M 157.18,328.60972 a 2.2689667,2.3594107 0 1 1 -2.26825,2.35867 2.2675333,2.3579203 0 0 1 2.26825,-2.35867 z" style="stroke-width:.730811"/><text id="text84" x="278.267" y="343.687" font-family="SegoeUI, 'Segoe UI'" font-size="11.693" transform="scale(0.98064606,1.0197359)" style="stroke-width:.730811">Things</text><rect id="rect86" width="46.583" height="41.423" x="251.439" y="362.262" fill="#fff" style="stroke-width:.730811"/><polygon id="polygon88" fill="#c2c2c2" points="409.777 479.602 342.264 479.602 347.753 485.515 409.777 485.515" transform="matrix(0.71666667,0,0,0.74523397,4.8166667,8.407279)"/><rect id="rect90" width="7.372" height="41.423" x="298.021" y="362.262" fill="#737373" style="stroke-width:.730811"/><rect id="rect92" width="54.346" height="10.633" x="247.557" y="356.68" fill="#fff" style="stroke-width:.730811"/><rect id="rect94" width="7.372" height="10.633" x="300.97" y="356.68" fill="#737373" style="stroke-width:.730811"/><text id="text96" x="268.438" y="375.842" font-family="SegoeUI, 'Segoe UI'" font-size="11.693" transform="scale(0.98064606,1.0197359)" style="stroke-width:.730811">1.0.0</text><path id="path98" fill="#004880" d="m 253.03847,331.57575 a 6.40055,6.6556846 0 0 0 -6.41345,6.67283 v 7.21312 a 6.4012667,6.6564298 0 0 0 6.41345,6.67357 h 6.93231 a 6.4019833,6.657175 0 0 0 6.41417,-6.67357 v -7.21387 a 6.4012667,6.6564298 0 0 0 -6.41417,-6.67282 z m -1.36167,3.5026 a 2.3986851,2.4943 0 0 1 0,4.9886 v 0 a 2.3986851,2.4943 0 0 1 0,-4.9886 z m 7.64468,6.06695 a 4.1487833,4.3141594 0 1 1 -4.14663,4.31416 4.1480667,4.3134142 0 0 1 4.14663,-4.31416 z M 245.33,328.60972 a 2.2689667,2.3594107 0 1 1 -2.26825,2.35867 2.2675333,2.3579203 0 0 1 2.26825,-2.35867 z" style="stroke-width:.730811"/><path id="path100" fill="#cbe247" d="M 250.63333,33 H 439.11667 A 7.8833333,8.1975737 0 0 1 447,41.197574 V 229.74177 H 258.51667 a 7.8833333,8.1975737 0 0 1 -7.88334,-8.19758 z" style="stroke-width:.730811"/><path id="path102" fill="#b0cdda" d="m 17,33 h 188.48333 a 7.8833333,8.1975737 0 0 1 7.88334,8.197574 V 229.74177 H 24.883333 A 7.8833333,8.1975737 0 0 1 17,221.54419 Z" style="stroke-width:.730811"/><path id="path104" fill="#cadee6" d="M 213.36667,61.567054 V 41.197574 A 7.8833333,8.1975737 0 0 0 205.48333,33 H 17 v 28.567054 z" style="stroke-width:.730811"/><path id="path106" fill="#e6f26d" d="M 447,61.567054 V 41.197574 A 7.8833333,8.1975737 0 0 0 439.11667,33 H 250.63333 v 28.567054 z" style="stroke-width:.730811"/><text id="text112" x="83.04" y="51.362" font-family="SegoeUI, 'Segoe UI'" font-size="17.54" transform="scale(0.98064606,1.0197359)" style="stroke-width:.730811"><tspan id="tspan108" letter-spacing="-.034em" style="stroke-width:.618677">F</tspan><tspan id="tspan110" x="91.004" y="51.362" style="stroke-width:.730811">abrikam</tspan></text><text id="text114" x="322.469" y="51.362" font-family="SegoeUI, 'Segoe UI'" font-size="17.54" transform="scale(0.98064606,1.0197359)" style="stroke-width:.730811">Contoso</text><text id="text116" x="111.034" y="110.558" font-family="SegoeUI, 'Segoe UI'" font-size="11.693" transform="scale(0.98064606,1.0197359)" style="stroke-width:.730811">Widgets</text><rect id="rect118" width="46.583" height="41.423" x="88.756" y="124.532" fill="#fff" style="stroke-width:.730811"/><polygon id="polygon120" fill="#c2c2c2" points="182.777 160.602 115.264 160.602 120.753 166.515 182.777 166.515" transform="matrix(0.71666667,0,0,0.74523397,4.8166667,8.407279)"/><rect id="rect122" width="7.372" height="41.423" x="135.337" y="124.532" fill="#939393" style="stroke-width:.730811"/><rect id="rect124" width="54.346" height="10.633" x="84.873" y="118.95" fill="#fff" style="stroke-width:.730811"/><rect id="rect126" width="7.372" height="10.633" x="138.287" y="118.95" fill="#939393" style="stroke-width:.730811"/><text id="text130" x="102.544" y="142.714" font-family="SegoeUI, 'Segoe UI'" font-size="11.693" transform="scale(0.98064606,1.0197359)" style="stroke-width:.730811">1.0.0<tspan id="tspan128" x="102.544" y="156.745" style="stroke-width:.730811">2.0.0</tspan></text><path id="path132" fill="#004880" d="m 90.355133,93.846118 a 6.40055,6.6556846 0 0 0 -6.41345,6.672822 v 7.21312 a 6.4012667,6.6564298 0 0 0 6.41345,6.67357 h 6.932317 a 6.4019833,6.657175 0 0 0 6.41417,-6.67357 v -7.21386 a 6.4012667,6.6564298 0 0 0 -6.41417,-6.672827 z m -1.361666,3.5026 a 2.3986833,2.4942981 0 0 1 0,4.988592 v 0 a 2.3986833,2.4942981 0 0 1 0,-4.988592 z m 7.644683,6.066952 a 4.1487833,4.3141594 0 1 1 -4.146633,4.31416 4.1480667,4.3134142 0 0 1 4.146633,-4.31416 z M 82.646667,90.880087 a 2.2689667,2.3594107 0 1 1 -2.26825,2.358665 2.2675333,2.3579203 0 0 1 2.26825,-2.358665 z" style="stroke-width:.730811"/><text id="text134" x="349.356" y="110.558" font-family="SegoeUI, 'Segoe UI'" font-size="11.693" transform="scale(0.98064606,1.0197359)" style="stroke-width:.730811">Gizmos</text><rect id="rect136" width="46.583" height="41.423" x="322.389" y="124.532" fill="#fff" style="stroke-width:.730811"/><polygon id="polygon138" fill="#c2c2c2" points="508.777 160.602 441.264 160.602 446.753 166.515 508.777 166.515" transform="matrix(0.71666667,0,0,0.74523397,4.8166667,8.407279)"/><rect id="rect140" width="7.372" height="41.423" x="368.971" y="124.532" fill="#939393" style="stroke-width:.730811"/><rect id="rect142" width="54.346" height="10.633" x="318.507" y="118.95" fill="#fff" style="stroke-width:.730811"/><rect id="rect144" width="7.372" height="10.633" x="371.92" y="118.95" fill="#939393" style="stroke-width:.730811"/><text id="text148" x="340.788" y="142.714" font-family="SegoeUI, 'Segoe UI'" font-size="11.693" transform="scale(0.98064606,1.0197359)" style="stroke-width:.730811">1.0.0<tspan id="tspan146" x="340.788" y="156.745" style="stroke-width:.730811">3.0.0</tspan></text><path id="path150" fill="#004880" d="m 323.98847,93.846118 a 6.40055,6.6556846 0 0 0 -6.41345,6.672822 v 7.21312 a 6.4012667,6.6564298 0 0 0 6.41345,6.67357 h 6.93231 a 6.4019833,6.657175 0 0 0 6.41417,-6.67357 v -7.21386 a 6.4012667,6.6564298 0 0 0 -6.41417,-6.672827 z m -1.36167,3.5026 a 2.3986833,2.4942981 0 0 1 0,4.988592 v 0 a 2.3986833,2.4942981 0 0 1 0,-4.988592 z m 7.64468,6.066952 a 4.1487833,4.3141594 0 1 1 -4.14663,4.31416 4.1480667,4.3134142 0 0 1 4.14663,-4.31416 z M 316.28,90.880087 a 2.2689667,2.3594107 0 1 1 -2.26825,2.358665 2.2675333,2.3579203 0 0 1 2.26825,-2.358665 z" style="stroke-width:.730811"/><path id="path152" fill="#b4a0ff" d="M 133.81667,267.00347 H 322.3 a 7.8833333,8.1975737 0 0 1 7.88333,8.19757 V 463 H 141.7 a 7.8833333,8.1975737 0 0 1 -7.88333,-8.19757 z" style="stroke-width:.730811"/><path id="path154" fill="#c7b8ff" d="M 330.18333,296.39847 V 275.20104 A 7.8833333,8.1975737 0 0 0 322.3,267.00347 H 133.81667 v 29.395 z" style="stroke-width:.730811"/><text id="text160" x="172.321" y="280.837" font-family="SegoeUI, 'Segoe UI'" font-size="17.54" transform="scale(0.98064606,1.0197359)" style="stroke-width:.730811">Adventure<tspan id="tspan156" x="252.602" y="280.837" letter-spacing="-.039em" style="stroke-width:.618677">W</tspan><tspan id="tspan158" x="268.3" y="280.837" style="stroke-width:.730811">orks</tspan></text><text id="text162" x="274.628" y="343.687" font-family="SegoeUI, 'Segoe UI'" font-size="11.693" transform="scale(0.98064606,1.0197359)" style="stroke-width:.730811">Gadgets</text><rect id="rect164" width="46.583" height="41.423" x="249.289" y="362.262" fill="#fff" style="stroke-width:.730811"/><polygon id="polygon166" fill="#c2c2c2" points="406.777 479.602 339.264 479.602 344.753 485.515 406.777 485.515" transform="matrix(0.71666667,0,0,0.74523397,4.8166667,8.407279)"/><rect id="rect168" width="7.372" height="41.423" x="295.871" y="362.262" fill="#737373" style="stroke-width:.730811"/><rect id="rect170" width="54.346" height="10.633" x="245.407" y="356.68" fill="#fff" style="stroke-width:.730811"/><rect id="rect172" width="7.372" height="10.633" x="298.82" y="356.68" fill="#737373" style="stroke-width:.730811"/><text id="text176" x="266.245" y="375.842" font-family="SegoeUI, 'Segoe UI'" font-size="11.693" transform="scale(0.98064606,1.0197359)" style="stroke-width:.730811">1.0.0<tspan id="tspan174" x="266.245" y="389.874" style="stroke-width:.730811">2.0.0</tspan></text><path id="path178" fill="#004880" d="m 250.88847,331.57575 a 6.40055,6.6556846 0 0 0 -6.41345,6.67283 v 7.21312 a 6.4012667,6.6564298 0 0 0 6.41345,6.67357 h 6.93231 a 6.4019833,6.657175 0 0 0 6.41417,-6.67357 v -7.21387 a 6.4012667,6.6564298 0 0 0 -6.41417,-6.67282 z m -1.36167,3.5026 a 2.3986851,2.4943 0 0 1 0,4.9886 v 0 a 2.3986851,2.4943 0 0 1 0,-4.9886 z m 7.64468,6.06695 a 4.1487833,4.3141594 0 1 1 -4.14663,4.31416 4.1480667,4.3134142 0 0 1 4.14663,-4.31416 z M 243.18,328.60972 a 2.2689667,2.3594107 0 1 1 -2.26825,2.35867 2.2675333,2.3579203 0 0 1 2.26825,-2.35867 z" style="stroke-width:.730811"/><text id="text180" x="186.916" y="343.687" font-family="SegoeUI, 'Segoe UI'" font-size="11.693" transform="scale(0.98064606,1.0197359)" style="stroke-width:.730811">Things</text><rect id="rect182" width="46.583" height="41.423" x="162.572" y="362.262" fill="#fff" style="stroke-width:.730811"/><polygon id="polygon184" fill="#c2c2c2" points="285.777 479.602 218.264 479.602 223.753 485.515 285.777 485.515" transform="matrix(0.71666667,0,0,0.74523397,4.8166667,8.407279)"/><rect id="rect186" width="7.372" height="41.423" x="209.154" y="362.262" fill="#737373" style="stroke-width:.730811"/><rect id="rect188" width="54.346" height="10.633" x="158.69" y="356.68" fill="#fff" style="stroke-width:.730811"/><rect id="rect190" width="7.372" height="10.633" x="212.103" y="356.68" fill="#737373" style="stroke-width:.730811"/><text id="text192" x="177.817" y="375.842" font-family="SegoeUI, 'Segoe UI'" font-size="11.693" transform="scale(0.98064606,1.0197359)" style="stroke-width:.730811">1.0.0</text><path id="path194" fill="#004880" d="m 164.1718,331.57575 a 6.40055,6.6556846 0 0 0 -6.41345,6.67283 v 7.21312 a 6.4012667,6.6564298 0 0 0 6.41345,6.67357 h 6.93232 a 6.4019833,6.657175 0 0 0 6.41416,-6.67357 v -7.21387 a 6.4012667,6.6564298 0 0 0 -6.41416,-6.67282 z m -1.36167,3.5026 a 2.3986851,2.4943 0 0 1 0,4.9886 v 0 a 2.3986851,2.4943 0 0 1 0,-4.9886 z m 7.64469,6.06695 a 4.1487833,4.3141594 0 1 1 -4.14664,4.31416 4.1480667,4.3134142 0 0 1 4.14664,-4.31416 z m -13.99149,-12.53558 a 2.2689667,2.3594107 0 1 1 -2.26825,2.35867 2.2675333,2.3579203 0 0 1 2.26825,-2.35867 z" style="stroke-width:.730811"/></svg>