<svg xmlns="http://www.w3.org/2000/svg" xmlns:svg="http://www.w3.org/2000/svg" id="svg288" width="463" height="490" version="1.1" viewBox="0 0 463 490"><metadata id="metadata294"/><title id="title2">blog-package-upstream-diagram-2</title><rect style="fill:#fff;fill-opacity:1" id="rect972" width="441.459" height="458.668" x="11.224" y="17.958"/><line id="line4" x1="22.017" x2="50.502" y1="387.971" y2="387.971" fill="none" stroke="#004880" stroke-miterlimit="10" stroke-width="2.192"/><polygon id="polygon6" fill="#004880" points="53.806 497.055 67 509.324 53.806 521.591 51.76 519.393 62.595 509.324 51.76 499.252" transform="matrix(0.71666667,0,0,0.74523397,4.8166667,8.407279)"/><path id="path8" fill="#b4a0ff" d="M 133.81667,267.00347 H 322.3 a 7.8833333,8.1975737 0 0 1 7.88333,8.19757 V 463 H 141.7 a 7.8833333,8.1975737 0 0 1 -7.88333,-8.19757 z" style="stroke-width:.730811"/><text id="text10" x="276.82" y="343.687" font-family="SegoeUI, 'Segoe UI'" font-size="11.693" transform="scale(0.98064606,1.0197359)" style="stroke-width:.730811">Gadgets</text><rect id="rect12" width="46.583" height="41.423" x="251.439" y="362.262" fill="#fff" style="stroke-width:.730811"/><polygon id="polygon14" fill="#c2c2c2" points="409.777 479.602 342.264 479.602 347.753 485.515 409.777 485.515" transform="matrix(0.71666667,0,0,0.74523397,4.8166667,8.407279)"/><rect id="rect16" width="7.372" height="41.423" x="298.021" y="362.262" fill="#737373" style="stroke-width:.730811"/><rect id="rect18" width="54.346" height="10.633" x="247.557" y="356.68" fill="#fff" style="stroke-width:.730811"/><rect id="rect20" width="7.372" height="10.633" x="300.97" y="356.68" fill="#737373" style="stroke-width:.730811"/><text id="text24" x="268.438" y="375.842" font-family="SegoeUI, 'Segoe UI'" font-size="11.693" transform="scale(0.98064606,1.0197359)" style="stroke-width:.730811">1.0.0<tspan id="tspan22" x="268.438" y="389.874" style="stroke-width:.730811">2.0.0</tspan></text><path id="path26" fill="#004880" d="m 253.03847,331.57575 a 6.40055,6.6556846 0 0 0 -6.41345,6.67283 v 7.21312 a 6.4012667,6.6564298 0 0 0 6.41345,6.67357 h 6.93231 a 6.4019833,6.657175 0 0 0 6.41417,-6.67357 v -7.21387 a 6.4012667,6.6564298 0 0 0 -6.41417,-6.67282 z m -1.36167,3.5026 a 2.3986851,2.4943 0 0 1 0,4.9886 v 0 a 2.3986851,2.4943 0 0 1 0,-4.9886 z m 7.64468,6.06695 a 4.1487833,4.3141594 0 1 1 -4.14663,4.31416 4.1480667,4.3134142 0 0 1 4.14663,-4.31416 z M 245.33,328.60972 a 2.2689667,2.3594107 0 1 1 -2.26825,2.35867 2.2675333,2.3579203 0 0 1 2.26825,-2.35867 z" style="stroke-width:.730811"/><path id="path28" fill="#cbe247" d="M 250.63333,33 H 439.11667 A 7.8833333,8.1975737 0 0 1 447,41.197574 V 229.74177 H 258.51667 a 7.8833333,8.1975737 0 0 1 -7.88334,-8.19758 z" style="stroke-width:.730811"/><path id="path30" fill="#b0cdda" d="m 17,33 h 188.48333 a 7.8833333,8.1975737 0 0 1 7.88334,8.197574 V 229.74177 H 24.883333 A 7.8833333,8.1975737 0 0 1 17,221.54419 Z" style="stroke-width:.730811"/><path id="path32" fill="#cadee6" d="M 213.36667,61.567054 V 41.197574 A 7.8833333,8.1975737 0 0 0 205.48333,33 H 17 v 28.567054 z" style="stroke-width:.730811"/><path id="path34" fill="#e6f26d" d="M 447,61.567054 V 41.197574 A 7.8833333,8.1975737 0 0 0 439.11667,33 H 250.63333 v 28.567054 z" style="stroke-width:.730811"/><text id="text40" x="83.04" y="51.362" font-family="SegoeUI, 'Segoe UI'" font-size="17.54" transform="scale(0.98064606,1.0197359)" style="stroke-width:.730811"><tspan id="tspan36" letter-spacing="-.034em" style="stroke-width:.618677">F</tspan><tspan id="tspan38" x="91.004" y="51.362" style="stroke-width:.730811">abrikam</tspan></text><text id="text42" x="322.469" y="51.362" font-family="SegoeUI, 'Segoe UI'" font-size="17.54" transform="scale(0.98064606,1.0197359)" style="stroke-width:.730811">Contoso</text><text id="text44" x="111.034" y="110.558" font-family="SegoeUI, 'Segoe UI'" font-size="11.693" transform="scale(0.98064606,1.0197359)" style="stroke-width:.730811">Widgets</text><rect id="rect46" width="46.583" height="41.423" x="88.756" y="124.532" fill="#fff" style="stroke-width:.730811"/><polygon id="polygon48" fill="#c2c2c2" points="182.777 160.602 115.264 160.602 120.753 166.515 182.777 166.515" transform="matrix(0.71666667,0,0,0.74523397,4.8166667,8.407279)"/><rect id="rect50" width="7.372" height="41.423" x="135.337" y="124.532" fill="#939393" style="stroke-width:.730811"/><rect id="rect52" width="54.346" height="10.633" x="84.873" y="118.95" fill="#fff" style="stroke-width:.730811"/><rect id="rect54" width="7.372" height="10.633" x="138.287" y="118.95" fill="#939393" style="stroke-width:.730811"/><text id="text58" x="102.544" y="142.714" font-family="SegoeUI, 'Segoe UI'" font-size="11.693" transform="scale(0.98064606,1.0197359)" style="stroke-width:.730811">1.0.0<tspan id="tspan56" x="102.544" y="156.745" style="stroke-width:.730811">2.0.0</tspan></text><path id="path60" fill="#004880" d="m 90.355133,93.846118 a 6.40055,6.6556846 0 0 0 -6.41345,6.672822 v 7.21312 a 6.4012667,6.6564298 0 0 0 6.41345,6.67357 h 6.932317 a 6.4019833,6.657175 0 0 0 6.41417,-6.67357 v -7.21386 a 6.4012667,6.6564298 0 0 0 -6.41417,-6.672827 z m -1.361666,3.5026 a 2.3986833,2.4942981 0 0 1 0,4.988592 v 0 a 2.3986833,2.4942981 0 0 1 0,-4.988592 z m 7.644683,6.066952 a 4.1487833,4.3141594 0 1 1 -4.146633,4.31416 4.1480667,4.3134142 0 0 1 4.146633,-4.31416 z M 82.646667,90.880087 a 2.2689667,2.3594107 0 1 1 -2.26825,2.358665 2.2675333,2.3579203 0 0 1 2.26825,-2.358665 z" style="stroke-width:.730811"/><path id="path62" fill="#c7b8ff" d="M 330.18333,296.39847 V 275.20104 A 7.8833333,8.1975737 0 0 0 322.3,267.00347 H 133.81667 v 29.395 z" style="stroke-width:.730811"/><text id="text68" x="172.321" y="280.837" font-family="SegoeUI, 'Segoe UI'" font-size="17.54" transform="scale(0.98064606,1.0197359)" style="stroke-width:.730811">Adventure<tspan id="tspan64" x="252.602" y="280.837" letter-spacing="-.039em" style="stroke-width:.618677">W</tspan><tspan id="tspan66" x="268.3" y="280.837" style="stroke-width:.730811">orks</tspan></text><text id="text70" x="185.454" y="342.543" font-family="SegoeUI, 'Segoe UI'" font-size="11.693" transform="scale(0.98064606,1.0197359)" style="stroke-width:.730811">Things</text><rect id="rect72" width="46.583" height="41.733" x="161.05" y="360.903" fill="#fff" style="stroke-width:.730811"/><polygon id="polygon74" fill="#c2c2c2" points="284 478 215.499 478 221.069 484 284 484" transform="matrix(0.71666667,0,0,0.74523397,4.8166667,8.407279)"/><rect id="rect76" width="7.167" height="41.733" x="207.633" y="360.903" fill="#737373" style="stroke-width:.730811"/><rect id="rect78" width="54.467" height="10.433" x="157.467" y="355.686" fill="#fff" style="stroke-width:.730811"/><rect id="rect80" width="7.167" height="10.433" x="210.5" y="355.686" fill="#737373" style="stroke-width:.730811"/><text id="text82" x="176.356" y="374.699" font-family="SegoeUI, 'Segoe UI'" font-size="11.693" transform="scale(0.98064606,1.0197359)" style="stroke-width:.730811">1.0.0</text><path id="path84" fill="#004880" d="m 156.03333,336.99211 v 7.55295 a 6.4141667,6.669844 0 0 0 6.41417,6.66984 h 7.23833 A 6.4141667,6.669844 0 0 0 176.1,344.54506 v -7.52686 a 6.41775,6.6735702 0 0 0 -6.41775,-6.66985 h -7.23475 a 6.3905167,6.6452513 0 0 0 -6.41417,6.64376 z m 5.3449,-3.07781 a 2.3986833,2.4942981 0 0 1 0,4.98785 v 0 a 2.3986833,2.4942981 0 0 1 0,-4.98785 z m 7.64469,6.0662 a 4.1487833,4.3141594 0 1 1 -4.14664,4.31416 4.1480667,4.3134142 0 0 1 4.14664,-4.31416 z M 155.03,327.44194 a 2.2689667,2.3594107 0 1 1 -2.26825,2.35941 2.26825,2.3586655 0 0 1 2.26825,-2.35941 z" style="stroke-width:.730811"/><text id="text86" x="24.156" y="403.2" font-family="SegoeUI, 'Segoe UI'" font-size="11.693" transform="scale(0.98064606,1.0197359)" style="stroke-width:.730811">Upstream source</text><line id="line88" x1="22.017" x2="53.55" y1="438.035" y2="438.035" fill="none" stroke="#737373" stroke-dasharray="2.923 2.923" stroke-miterlimit="10" stroke-width="1.462"/><text id="text90" x="24.156" y="448.511" font-family="SegoeUI, 'Segoe UI'" font-size="11.693" transform="scale(0.98064606,1.0197359)" style="stroke-width:.730811">Feed link</text><path id="path92" fill="none" stroke="#737373" stroke-dasharray="2.923 2.923" stroke-miterlimit="10" stroke-width="1.462" d="m 350.25,226.76083 v 135.63258 c 0,12.66898 -5.73333,18.63085 -18.63333,18.63085 h -19.35"/><text id="text94" x="352.279" y="88.221" font-family="SegoeUI, 'Segoe UI'" font-size="11.693" transform="scale(0.98064606,1.0197359)" style="stroke-width:.730811">Gizmos</text><rect id="rect96" width="46.583" height="41.423" x="325.256" y="101.754" fill="#fff" style="stroke-width:.730811"/><polygon id="polygon98" fill="#c2c2c2" points="512.777 130.036 445.264 130.036 450.753 135.95 512.777 135.95" transform="matrix(0.71666667,0,0,0.74523397,4.8166667,8.407279)"/><rect id="rect100" width="7.167" height="41.733" x="371.75" y="101.562" fill="#939393" style="stroke-width:.730811"/><rect id="rect102" width="54.467" height="10.433" x="321.583" y="96.345" fill="#fff" style="stroke-width:.730811"/><rect id="rect104" width="7.167" height="10.433" x="374.617" y="96.345" fill="#939393" style="stroke-width:.730811"/><text id="text108" x="343.711" y="120.377" font-family="SegoeUI, 'Segoe UI'" font-size="11.693" transform="scale(0.98064606,1.0197359)" style="stroke-width:.730811">1.0.0<tspan id="tspan106" x="343.711" y="134.408" style="stroke-width:.730811">3.0.0</tspan></text><path id="path110" fill="#004880" d="m 326.85513,71.067296 a 6.4012667,6.6564298 0 0 0 -6.41345,6.673571 v 7.212374 a 6.4012667,6.6564298 0 0 0 6.41345,6.67357 h 6.93232 a 6.4019833,6.657175 0 0 0 6.41417,-6.67357 v -7.212374 a 6.4019833,6.657175 0 0 0 -6.41417,-6.673571 z m -1.36166,3.5026 a 2.3986833,2.4942981 0 0 1 0,4.987851 v 0 a 2.3986833,2.4942981 0 0 1 0,-4.987851 z m 7.64468,6.066205 a 4.1487833,4.3141594 0 1 1 -4.14663,4.314159 4.1480667,4.3134142 0 0 1 4.14663,-4.314159 z M 319.14667,68.10052 a 2.2689667,2.3594107 0 1 1 -2.26825,2.359411 2.26825,2.3586655 0 0 1 2.26825,-2.359411 z" style="stroke-width:.730811"/><text id="text112" x="352.094" y="165.687" font-family="SegoeUI, 'Segoe UI'" font-size="11.693" transform="scale(0.98064606,1.0197359)" style="stroke-width:.730811">Gadgets</text><text id="text114" x="344.442" y="197.842" font-family="SegoeUI, 'Segoe UI'" font-size="11.693" transform="scale(0.98064606,1.0197359)" style="stroke-width:.730811">2.0.0</text><path id="path116" fill="#004880" d="m 327.5718,150.0621 a 6.4012667,6.6564298 0 0 0 -6.41345,6.67357 v 7.21237 a 6.4012667,6.6564298 0 0 0 6.41345,6.67357 h 6.93232 a 6.4019833,6.657175 0 0 0 6.41416,-6.67357 v -7.21237 a 6.4019833,6.657175 0 0 0 -6.41416,-6.67357 z m -1.36167,3.5026 a 2.3986833,2.4942981 0 0 1 0,4.98785 v 0 a 2.3986833,2.4942981 0 0 1 0,-4.98785 z m 7.64469,6.0662 a 4.1487833,4.3141594 0 1 1 -4.14664,4.31416 4.1480667,4.3134142 0 0 1 4.14664,-4.31416 z m -13.99149,-12.53558 a 2.2689667,2.3594107 0 1 1 -2.26825,2.35941 2.26825,2.3586655 0 0 1 2.26825,-2.35941 z" style="stroke-width:.730811"/><rect id="rect118" width="1.433" height="1.49" x="320.15" y="180.556" fill="#107c10" style="stroke-width:.730811"/><rect id="rect120" width="1.433" height="1.49" x="320.15" y="177.575" fill="#107c10" style="stroke-width:.730811"/><rect id="rect122" width="1.433" height="1.49" x="380.35" y="174.594" fill="#107c10" style="stroke-width:.730811"/><rect id="rect124" width="1.433" height="1.49" x="377.483" y="174.594" fill="#107c10" style="stroke-width:.730811"/><rect id="rect126" width="1.433" height="1.49" x="374.617" y="174.594" fill="#107c10" style="stroke-width:.730811"/><rect id="rect128" width="1.433" height="1.49" x="371.75" y="174.594" fill="#107c10" style="stroke-width:.730811"/><rect id="rect130" width="1.433" height="1.49" x="368.883" y="174.594" fill="#107c10" style="stroke-width:.730811"/><rect id="rect132" width="1.433" height="1.49" x="366.017" y="174.594" fill="#107c10" style="stroke-width:.730811"/><rect id="rect134" width="1.433" height="1.49" x="363.15" y="174.594" fill="#107c10" style="stroke-width:.730811"/><rect id="rect136" width="1.433" height="1.49" x="360.283" y="174.594" fill="#107c10" style="stroke-width:.730811"/><rect id="rect138" width="1.433" height="1.49" x="357.417" y="174.594" fill="#107c10" style="stroke-width:.730811"/><rect id="rect140" width="1.433" height="1.49" x="354.55" y="174.594" fill="#107c10" style="stroke-width:.730811"/><rect id="rect142" width="1.433" height="1.49" x="351.683" y="174.594" fill="#107c10" style="stroke-width:.730811"/><rect id="rect144" width="1.433" height="1.49" x="348.817" y="174.594" fill="#107c10" style="stroke-width:.730811"/><rect id="rect146" width="1.433" height="1.49" x="345.95" y="174.594" fill="#107c10" style="stroke-width:.730811"/><rect id="rect148" width="1.433" height="1.49" x="343.083" y="174.594" fill="#107c10" style="stroke-width:.730811"/><rect id="rect150" width="1.433" height="1.49" x="340.217" y="174.594" fill="#107c10" style="stroke-width:.730811"/><rect id="rect152" width="1.433" height="1.49" x="337.35" y="174.594" fill="#107c10" style="stroke-width:.730811"/><rect id="rect154" width="1.433" height="1.49" x="334.483" y="174.594" fill="#107c10" style="stroke-width:.730811"/><rect id="rect156" width="1.433" height="1.49" x="331.617" y="174.594" fill="#107c10" style="stroke-width:.730811"/><rect id="rect158" width="1.433" height="1.49" x="328.75" y="174.594" fill="#107c10" style="stroke-width:.730811"/><rect id="rect160" width="1.433" height="1.49" x="325.883" y="174.594" fill="#107c10" style="stroke-width:.730811"/><rect id="rect162" width="1.433" height="1.49" x="323.017" y="174.594" fill="#107c10" style="stroke-width:.730811"/><rect id="rect164" width="1.433" height="1.49" x="380.35" y="183.537" fill="#107c10" style="stroke-width:.730811"/><rect id="rect166" width="1.433" height="1.49" x="380.35" y="180.556" fill="#107c10" style="stroke-width:.730811"/><rect id="rect168" width="1.433" height="1.49" x="380.35" y="177.575" fill="#107c10" style="stroke-width:.730811"/><rect id="rect170" width="1.433" height="1.49" x="371.75" y="180.556" fill="#107c10" style="stroke-width:.730811"/><rect id="rect172" width="1.433" height="1.49" x="371.75" y="177.575" fill="#107c10" style="stroke-width:.730811"/><rect id="rect174" width="1.433" height="1.49" x="377.483" y="183.537" fill="#107c10" style="stroke-width:.730811"/><rect id="rect176" width="1.433" height="1.49" x="374.617" y="183.537" fill="#107c10" style="stroke-width:.730811"/><rect id="rect178" width="1.433" height="1.49" x="371.75" y="183.537" fill="#107c10" style="stroke-width:.730811"/><rect id="rect180" width="1.433" height="1.49" x="368.883" y="183.537" fill="#107c10" style="stroke-width:.730811"/><rect id="rect182" width="1.433" height="1.49" x="366.017" y="183.537" fill="#107c10" style="stroke-width:.730811"/><rect id="rect184" width="1.433" height="1.49" x="363.15" y="183.537" fill="#107c10" style="stroke-width:.730811"/><rect id="rect186" width="1.433" height="1.49" x="360.283" y="183.537" fill="#107c10" style="stroke-width:.730811"/><rect id="rect188" width="1.433" height="1.49" x="357.417" y="183.537" fill="#107c10" style="stroke-width:.730811"/><rect id="rect190" width="1.433" height="1.49" x="354.55" y="183.537" fill="#107c10" style="stroke-width:.730811"/><rect id="rect192" width="1.433" height="1.49" x="351.683" y="183.537" fill="#107c10" style="stroke-width:.730811"/><rect id="rect194" width="1.433" height="1.49" x="348.817" y="183.537" fill="#107c10" style="stroke-width:.730811"/><rect id="rect196" width="1.433" height="1.49" x="345.95" y="183.537" fill="#107c10" style="stroke-width:.730811"/><rect id="rect198" width="1.433" height="1.49" x="343.083" y="183.537" fill="#107c10" style="stroke-width:.730811"/><rect id="rect200" width="1.433" height="1.49" x="340.217" y="183.537" fill="#107c10" style="stroke-width:.730811"/><rect id="rect202" width="1.433" height="1.49" x="337.35" y="183.537" fill="#107c10" style="stroke-width:.730811"/><rect id="rect204" width="1.433" height="1.49" x="334.483" y="183.537" fill="#107c10" style="stroke-width:.730811"/><rect id="rect206" width="1.433" height="1.49" x="331.617" y="183.537" fill="#107c10" style="stroke-width:.730811"/><rect id="rect208" width="1.433" height="1.49" x="328.75" y="183.537" fill="#107c10" style="stroke-width:.730811"/><rect id="rect210" width="1.433" height="1.49" x="325.883" y="183.537" fill="#107c10" style="stroke-width:.730811"/><rect id="rect212" width="1.433" height="1.49" x="323.017" y="183.537" fill="#107c10" style="stroke-width:.730811"/><rect id="rect214" width="1.433" height="1.49" x="320.15" y="183.537" fill="#107c10" style="stroke-width:.730811"/><rect id="rect216" width="1.433" height="1.49" x="320.15" y="180.556" fill="#107c10" style="stroke-width:.730811"/><rect id="rect218" width="1.433" height="1.49" x="320.15" y="177.575" fill="#107c10" style="stroke-width:.730811"/><polygon id="polygon220" fill="#107c10" points="440 225 441.022 225 441.022 224.999 442 224.999 442 223 440 223 440 224.624 440 224.897" transform="matrix(0.71666667,0,0,0.74523397,4.8166667,8.407279)"/><rect id="rect222" width="1.433" height="1.49" x="376.767" y="221.544" fill="#107c10" style="stroke-width:.730811"/><rect id="rect224" width="1.433" height="1.49" x="373.9" y="221.544" fill="#107c10" style="stroke-width:.730811"/><rect id="rect226" width="1.433" height="1.49" x="371.033" y="221.544" fill="#107c10" style="stroke-width:.730811"/><rect id="rect228" width="1.433" height="1.49" x="368.167" y="221.544" fill="#107c10" style="stroke-width:.730811"/><rect id="rect230" width="1.433" height="1.49" x="365.3" y="221.544" fill="#107c10" style="stroke-width:.730811"/><rect id="rect232" width="1.433" height="1.49" x="362.433" y="221.544" fill="#107c10" style="stroke-width:.730811"/><rect id="rect234" width="1.433" height="1.49" x="359.567" y="221.544" fill="#107c10" style="stroke-width:.730811"/><rect id="rect236" width="1.433" height="1.49" x="356.7" y="221.544" fill="#107c10" style="stroke-width:.730811"/><rect id="rect238" width="1.433" height="1.49" x="353.833" y="221.544" fill="#107c10" style="stroke-width:.730811"/><rect id="rect240" width="1.433" height="1.49" x="350.967" y="221.544" fill="#107c10" style="stroke-width:.730811"/><rect id="rect242" width="1.433" height="1.49" x="348.1" y="221.544" fill="#107c10" style="stroke-width:.730811"/><rect id="rect244" width="1.433" height="1.49" x="345.233" y="221.544" fill="#107c10" style="stroke-width:.730811"/><rect id="rect246" width="1.433" height="1.49" x="342.367" y="221.544" fill="#107c10" style="stroke-width:.730811"/><rect id="rect248" width="1.433" height="1.49" x="339.5" y="221.544" fill="#107c10" style="stroke-width:.730811"/><rect id="rect250" width="1.433" height="1.49" x="336.633" y="221.544" fill="#107c10" style="stroke-width:.730811"/><rect id="rect252" width="1.433" height="1.49" x="333.767" y="221.544" fill="#107c10" style="stroke-width:.730811"/><rect id="rect254" width="1.433" height="1.49" x="330.9" y="221.544" fill="#107c10" style="stroke-width:.730811"/><rect id="rect256" width="1.433" height="1.49" x="328.033" y="221.544" fill="#107c10" style="stroke-width:.730811"/><rect id="rect258" width="1.433" height="1.49" x="325.167" y="221.544" fill="#107c10" style="stroke-width:.730811"/><path id="path260" fill="#107c10" d="m 326.6,214.09185 h -1.43333 v -1.49046 H 326.6 Z m 0,-2.98093 h -1.43333 v -1.49047 H 326.6 Z m 0,-2.98094 h -1.43333 v -1.49047 H 326.6 Z m 0,-2.98093 h -1.43333 v -1.49047 H 326.6 Z m 0,-2.98094 h -1.43333 v -1.49047 H 326.6 Z m 0,-2.98093 h -1.43333 v -1.49047 H 326.6 Z m 0,-2.98094 h -1.43333 v -1.49047 H 326.6 Z m 0,-2.98094 h -1.43333 v -1.49046 H 326.6 Z m 0,-2.98093 h -1.43333 V 188.7539 H 326.6 Z m 0,-2.98094 h -1.43333 v -1.49047 H 326.6 Z" style="stroke-width:.730811"/><rect id="rect262" width="1.433" height="1.49" x="325.167" y="218.563" fill="#107c10" style="stroke-width:.730811"/><rect id="rect264" width="1.433" height="1.49" x="325.167" y="215.582" fill="#107c10" style="stroke-width:.730811"/><polygon id="polygon266" fill="#107c10" points="447 276 448.022 276 448.022 275.999 449 275.999 449 274 447 274 447 275.624 447 275.897" transform="matrix(0.71666667,0,0,0.74523397,4.8166667,8.407279)"/><path id="path268" fill="#107c10" d="m 369.6,214.09185 h -1.43333 v -1.49046 H 369.6 Z m 0,-2.98093 h -1.43333 v -1.49047 H 369.6 Z m 0,-2.98094 h -1.43333 v -1.49047 H 369.6 Z m 0,-2.98093 h -1.43333 v -1.49047 H 369.6 Z m 0,-2.98094 h -1.43333 v -1.49047 H 369.6 Z m 0,-2.98093 h -1.43333 v -1.49047 H 369.6 Z m 0,-2.98094 h -1.43333 v -1.49047 H 369.6 Z m 0,-2.98094 h -1.43333 v -1.49046 H 369.6 Z m 0,-2.98093 h -1.43333 V 188.7539 H 369.6 Z m 0,-2.98094 h -1.43333 v -1.49047 H 369.6 Z" style="stroke-width:.730811"/><rect id="rect270" width="1.433" height="1.49" x="368.167" y="218.563" fill="#107c10" style="stroke-width:.730811"/><rect id="rect272" width="1.433" height="1.49" x="368.167" y="215.582" fill="#107c10" style="stroke-width:.730811"/><polygon id="polygon274" fill="#107c10" points="507 276 508.022 276 508.022 275.999 509 275.999 509 274 507 274 507 275.624 507 275.897" transform="matrix(0.71666667,0,0,0.74523397,4.8166667,8.407279)"/><path id="path276" fill="#107c10" d="m 378.2,214.09185 h -1.43333 v -1.49046 H 378.2 Z m 0,-2.98093 h -1.43333 v -1.49047 H 378.2 Z m 0,-2.98094 h -1.43333 v -1.49047 H 378.2 Z m 0,-2.98093 h -1.43333 v -1.49047 H 378.2 Z m 0,-2.98094 h -1.43333 v -1.49047 H 378.2 Z m 0,-2.98093 h -1.43333 v -1.49047 H 378.2 Z m 0,-2.98094 h -1.43333 v -1.49047 H 378.2 Z m 0,-2.98094 h -1.43333 v -1.49046 H 378.2 Z m 0,-2.98093 h -1.43333 V 188.7539 H 378.2 Z m 0,-2.98094 h -1.43333 v -1.49047 H 378.2 Z" style="stroke-width:.730811"/><rect id="rect278" width="1.433" height="1.49" x="376.767" y="218.563" fill="#107c10" style="stroke-width:.730811"/><rect id="rect280" width="1.433" height="1.49" x="376.767" y="215.582" fill="#107c10" style="stroke-width:.730811"/><polygon id="polygon282" fill="#107c10" points="519 276 520.022 276 520.022 275.999 521 275.999 521 274 519 274 519 275.624 519 275.897" transform="matrix(0.71666667,0,0,0.74523397,4.8166667,8.407279)"/><line id="line284" x1="283.242" x2="283.242" y1="267.003" y2="233.656" fill="none" stroke="#004880" stroke-miterlimit="10" stroke-width="2.192"/><polygon id="polygon286" fill="#004880" points="376.233 312.194 388.503 299 400.77 312.194 398.572 314.24 388.503 303.405 378.431 314.24" transform="matrix(0.71666667,0,0,0.74523397,4.8166667,8.407279)"/></svg>